<svg width="805" height="155" viewBox="0 0 805 155" fill="none" xmlns="http://www.w3.org/2000/svg">
<path d="M155.182 124H127.909L158.636 30.9091H193.182L223.909 124H196.636L176.273 56.5455H175.545L155.182 124ZM150.091 87.2727H201.364V106.182H150.091V87.2727ZM218.58 51.2727V30.9091H299.489V51.2727H271.489V124H246.58V51.2727H218.58ZM309 124V30.9091H334.273V67.2727H367.727V30.9091H393V124H367.727V87.6364H334.273V124H309ZM405 124V30.9091H430.273V103.636H467.909V124H405ZM478.125 124V30.9091H545.216V51.2727H503.398V67.2727H541.761V87.6364H503.398V103.636H545.034V124H478.125ZM555.205 51.2727V30.9091H636.114V51.2727H608.114V124H583.205V51.2727H555.205ZM645.625 124V30.9091H712.716V51.2727H670.898V67.2727H709.261V87.6364H670.898V103.636H712.534V124H645.625ZM775.432 60C775.189 56.9697 774.053 54.6061 772.023 52.9091C770.023 51.2121 766.977 50.3636 762.886 50.3636C760.28 50.3636 758.144 50.6818 756.477 51.3182C754.841 51.9242 753.629 52.7576 752.841 53.8182C752.053 54.8788 751.644 56.0909 751.614 57.4545C751.553 58.5758 751.75 59.5909 752.205 60.5C752.689 61.3788 753.447 62.1818 754.477 62.9091C755.508 63.6061 756.826 64.2424 758.432 64.8182C760.038 65.3939 761.947 65.9091 764.159 66.3636L771.795 68C776.947 69.0909 781.356 70.5303 785.023 72.3182C788.689 74.1061 791.689 76.2121 794.023 78.6364C796.356 81.0303 798.068 83.7273 799.159 86.7273C800.28 89.7273 800.856 93 800.886 96.5455C800.856 102.667 799.326 107.848 796.295 112.091C793.265 116.333 788.932 119.561 783.295 121.773C777.689 123.985 770.947 125.091 763.068 125.091C754.977 125.091 747.917 123.894 741.886 121.5C735.886 119.106 731.22 115.424 727.886 110.455C724.583 105.455 722.917 99.0606 722.886 91.2727H746.886C747.038 94.1212 747.75 96.5152 749.023 98.4545C750.295 100.394 752.083 101.864 754.386 102.864C756.72 103.864 759.492 104.364 762.705 104.364C765.402 104.364 767.659 104.03 769.477 103.364C771.295 102.697 772.674 101.773 773.614 100.591C774.553 99.4091 775.038 98.0606 775.068 96.5455C775.038 95.1212 774.568 93.8788 773.659 92.8182C772.78 91.7273 771.326 90.7576 769.295 89.9091C767.265 89.0303 764.523 88.2121 761.068 87.4545L751.795 85.4545C743.553 83.6667 737.053 80.6818 732.295 76.5C727.568 72.2879 725.22 66.5455 725.25 59.2727C725.22 53.3636 726.795 48.197 729.977 43.7727C733.189 39.3182 737.629 35.8485 743.295 33.3636C748.992 30.8788 755.523 29.6364 762.886 29.6364C770.402 29.6364 776.902 30.8939 782.386 33.4091C787.871 35.9242 792.098 39.4697 795.068 44.0455C798.068 48.5909 799.583 53.9091 799.614 60H775.432Z" fill="white"/>
<path fill-rule="evenodd" clip-rule="evenodd" d="M62.4997 30.0001C36.2662 30.0001 14.9997 51.2666 14.9997 77.5001C14.9997 103.733 36.2662 125 62.4997 125C88.7333 125 110 103.733 110 77.5001C110 51.2666 88.7333 30.0001 62.4997 30.0001ZM7.49969 77.5001C7.49969 47.1245 32.124 22.5002 62.4997 22.5002C92.875 22.5002 117.5 47.1245 117.5 77.5001C117.5 107.876 92.875 132.5 62.4997 132.5C32.124 132.5 7.49969 107.876 7.49969 77.5001Z" fill="white"/>
<path fill-rule="evenodd" clip-rule="evenodd" d="M112.499 80.8332H12.4995V74.1665H112.499V80.8332Z" fill="white"/>
<path fill-rule="evenodd" clip-rule="evenodd" d="M59.1659 127.5V27.5H65.8326V127.5H59.1659ZM86.4583 77.4998C86.4583 59.3937 79.947 41.4815 67.1819 29.638L71.1494 25.3618C85.33 38.5182 92.2917 58.1061 92.2917 77.4998C92.2917 96.8937 85.33 116.482 71.1494 129.638L67.1819 125.362C79.947 113.518 86.4583 95.6061 86.4583 77.4998ZM33.3307 77.5C33.3307 58.1343 40.0655 38.5565 53.814 25.3933L57.8481 29.6068C45.485 41.4436 39.1641 59.3658 39.1641 77.5C39.1642 95.6343 45.4852 113.557 57.8482 125.393L53.8141 129.607C40.0657 116.443 33.3308 96.8658 33.3307 77.5Z" fill="white"/>
<path fill-rule="evenodd" clip-rule="evenodd" d="M62.4997 47.9834C80.5773 47.9834 98.9608 51.3262 111.422 58.2873C112.828 59.0729 113.332 60.8497 112.546 62.2561C111.761 63.6623 109.983 64.1656 108.578 63.38C97.3283 57.0962 80.0666 53.8167 62.4997 53.8167C44.9327 53.8167 27.671 57.0962 16.422 63.38C15.0157 64.1656 13.2388 63.6623 12.4533 62.2561C11.6678 60.8497 12.1709 59.0729 13.5773 58.2873C26.0388 51.3262 44.4219 47.9834 62.4997 47.9834ZM62.4997 105.417C80.5773 105.417 98.9608 102.073 111.422 95.1125C112.828 94.327 113.332 92.5501 112.546 91.1438C111.761 89.7375 109.983 89.2343 108.578 90.0198C97.3283 96.3036 80.0666 99.5833 62.4997 99.5833C44.9327 99.5833 27.671 96.3036 16.422 90.0199C15.0157 89.2343 13.2388 89.7375 12.4533 91.1438C11.6678 92.5501 12.1709 94.327 13.5773 95.1125C26.0388 102.073 44.4219 105.417 62.4997 105.417Z" fill="white"/>
</svg>
