<svg width="256" height="149" viewBox="0 0 256 149" fill="none" xmlns="http://www.w3.org/2000/svg">
<path d="M82.4935 146.818L82.4538 147.857H83.4928H121.601H122.607L122.601 146.851L121.799 2.44016L121.793 1.44572H120.799H54.6106H53.9058L53.6688 2.10955L2.12219 146.52L1.64526 147.857H3.064H41.373H42.1084L42.3276 147.154L51.9364 116.367H83.6573L82.4935 146.818ZM173.634 2.0382L173.674 1.00001L172.635 1.00001L134.527 1.00001L133.521 1.00001L133.527 2.00557L134.329 146.416L134.335 147.411H135.329H201.517H202.222L202.459 146.747L254.006 2.33617L254.483 1L253.064 1L214.755 1L214.02 1L213.8 1.70207L204.192 32.4896L172.471 32.4896L173.634 2.0382ZM86.8611 38.5456L84.7414 87.4905H60.7826L76.0056 38.5456H86.8611ZM169.267 110.311L171.387 61.366H195.345L180.122 110.311H169.267Z" fill="black" stroke="black" stroke-width="2"/>
</svg>
