<svg width="372" height="49" viewBox="0 0 372 49" fill="none" xmlns="http://www.w3.org/2000/svg">
<path d="M65.115 44.105C62.0717 44.105 59.45 43.665 57.25 42.785C55.0867 41.8683 53.4367 40.4933 52.3 38.66C51.1633 36.79 50.595 34.4067 50.595 31.51V30.3H60V31.51C60 33.1967 60.4033 34.4433 61.21 35.25C62.0533 36.02 63.2817 36.405 64.895 36.405C66.4717 36.405 67.6633 35.91 68.47 34.92C69.3133 33.93 69.735 32.4083 69.735 30.355V5.66H79.58V30.41C79.58 33.5267 79.0117 36.1117 77.875 38.165C76.7383 40.1817 75.0883 41.685 72.925 42.675C70.7617 43.6283 68.1583 44.105 65.115 44.105Z" fill="black"/>
<path d="M104.599 44.105C100.969 44.105 97.8336 43.5367 95.1936 42.4C92.5902 41.2633 90.5919 39.5583 89.1986 37.285C87.8052 35.0117 87.1086 32.1883 87.1086 28.815V5.66H97.0086V28.595C97.0086 31.015 97.6502 32.9217 98.9336 34.315C100.217 35.7083 102.105 36.405 104.599 36.405C107.092 36.405 108.999 35.7083 110.319 34.315C111.639 32.9217 112.299 31.015 112.299 28.595V5.66H122.144V28.815C122.144 32.1883 121.447 35.0117 120.054 37.285C118.66 39.5583 116.662 41.2633 114.059 42.4C111.455 43.5367 108.302 44.105 104.599 44.105Z" fill="black"/>
<path d="M129.745 43.445V5.66H144.1L148.665 22.49C148.848 23.0767 149.068 23.8833 149.325 24.91C149.581 25.9 149.838 26.945 150.095 28.045C150.351 29.145 150.571 30.135 150.755 31.015H151.195C151.341 30.3183 151.525 29.4933 151.745 28.54C151.965 27.55 152.203 26.5233 152.46 25.46C152.716 24.36 152.955 23.3517 153.175 22.435L157.795 5.66H171.765V43.445H162.195V27.33C162.195 25.7533 162.195 24.1583 162.195 22.545C162.231 20.9317 162.268 19.465 162.305 18.145C162.341 16.825 162.36 15.8717 162.36 15.285H161.92C161.81 15.835 161.626 16.6417 161.37 17.705C161.15 18.7317 160.893 19.8133 160.6 20.95C160.343 22.05 160.105 23.0033 159.885 23.81L154.385 43.445H146.465L140.91 23.81C140.726 23.0767 140.506 22.1967 140.25 21.17C139.993 20.1433 139.736 19.0983 139.48 18.035C139.26 16.9717 139.058 16.0733 138.875 15.34H138.435C138.471 16.2933 138.508 17.4667 138.545 18.86C138.581 20.2167 138.618 21.6467 138.655 23.15C138.691 24.6167 138.71 26.01 138.71 27.33V43.445H129.745Z" fill="black"/>
<path d="M179.468 43.445V5.66H200.258C202.825 5.66 205.006 6.19167 206.803 7.255C208.636 8.28167 210.03 9.73 210.983 11.6C211.973 13.4333 212.468 15.5967 212.468 18.09C212.468 20.6567 211.955 22.875 210.928 24.745C209.938 26.615 208.508 28.0817 206.638 29.145C204.805 30.1717 202.605 30.685 200.038 30.685H189.313V43.445H179.468ZM189.313 23.095H197.728C199.268 23.095 200.442 22.6733 201.248 21.83C202.055 20.95 202.458 19.74 202.458 18.2C202.458 17.1 202.275 16.2017 201.908 15.505C201.578 14.8083 201.065 14.2767 200.368 13.91C199.671 13.5067 198.791 13.305 197.728 13.305H189.313V23.095Z" fill="black"/>
<path d="M232.996 44.105C230.613 44.105 228.376 43.885 226.286 43.445C224.196 43.0417 222.345 42.3633 220.731 41.41C219.155 40.4567 217.908 39.21 216.991 37.67C216.075 36.0933 215.616 34.1683 215.616 31.895C215.616 31.7483 215.616 31.5833 215.616 31.4C215.616 31.2167 215.635 31.07 215.671 30.96H225.186C225.186 31.07 225.168 31.2167 225.131 31.4C225.131 31.5467 225.131 31.675 225.131 31.785C225.131 32.9583 225.425 33.9117 226.011 34.645C226.635 35.3417 227.496 35.855 228.596 36.185C229.696 36.4783 230.98 36.625 232.446 36.625C233.253 36.625 234.005 36.5883 234.701 36.515C235.398 36.4417 236.021 36.3133 236.571 36.13C237.121 35.9467 237.598 35.7267 238.001 35.47C238.441 35.1767 238.753 34.8467 238.936 34.48C239.156 34.0767 239.266 33.6183 239.266 33.105C239.266 32.2617 238.936 31.565 238.276 31.015C237.653 30.465 236.791 30.0067 235.691 29.64C234.628 29.2733 233.418 28.925 232.061 28.595C230.705 28.265 229.293 27.9167 227.826 27.55C226.36 27.1833 224.948 26.725 223.591 26.175C222.235 25.625 221.006 24.9283 219.906 24.085C218.843 23.2417 217.981 22.1967 217.321 20.95C216.698 19.6667 216.386 18.1267 216.386 16.33C216.386 14.35 216.808 12.645 217.651 11.215C218.495 9.74833 219.65 8.55667 221.116 7.64C222.62 6.72333 224.343 6.06333 226.286 5.66C228.23 5.22 230.301 5 232.501 5C234.665 5 236.681 5.22 238.551 5.66C240.458 6.1 242.145 6.79667 243.611 7.75C245.078 8.66667 246.215 9.84 247.021 11.27C247.865 12.6633 248.305 14.35 248.341 16.33V16.99H238.881V16.605C238.881 15.7617 238.643 15.0283 238.166 14.405C237.726 13.745 237.048 13.2317 236.131 12.865C235.215 12.4617 234.078 12.26 232.721 12.26C231.365 12.26 230.21 12.3883 229.256 12.645C228.34 12.9017 227.625 13.2683 227.111 13.745C226.635 14.2217 226.396 14.79 226.396 15.45C226.396 16.2567 226.708 16.9167 227.331 17.43C227.991 17.9433 228.871 18.3833 229.971 18.75C231.071 19.1167 232.3 19.465 233.656 19.795C235.013 20.0883 236.406 20.4183 237.836 20.785C239.303 21.115 240.715 21.555 242.071 22.105C243.428 22.6183 244.656 23.2967 245.756 24.14C246.856 24.9467 247.718 25.955 248.341 27.165C249.001 28.375 249.331 29.8417 249.331 31.565C249.331 34.5717 248.616 36.9917 247.186 38.825C245.793 40.6583 243.85 41.9967 241.356 42.84C238.9 43.6833 236.113 44.105 232.996 44.105Z" fill="black"/>
<path d="M255.121 43.445V5.66H264.966V20.18H280.311V5.66H290.156V43.445H280.311V28.21H264.966V43.445H255.121Z" fill="black"/>
<path d="M316.012 44.105C311.869 44.105 308.312 43.39 305.342 41.96C302.409 40.4933 300.154 38.3117 298.577 35.415C297 32.5183 296.212 28.8883 296.212 24.525C296.212 20.1617 297 16.55 298.577 13.69C300.154 10.7933 302.409 8.63 305.342 7.2C308.312 5.73333 311.869 5 316.012 5C320.155 5 323.694 5.73333 326.627 7.2C329.597 8.63 331.87 10.7933 333.447 13.69C335.024 16.55 335.812 20.1617 335.812 24.525C335.812 28.8883 335.024 32.5183 333.447 35.415C331.87 38.3117 329.597 40.4933 326.627 41.96C323.694 43.39 320.155 44.105 316.012 44.105ZM316.012 36.405C317.589 36.405 318.982 36.1667 320.192 35.69C321.402 35.2133 322.41 34.5167 323.217 33.6C324.06 32.6833 324.684 31.565 325.087 30.245C325.49 28.925 325.692 27.44 325.692 25.79V23.37C325.692 21.6833 325.49 20.18 325.087 18.86C324.684 17.54 324.06 16.4217 323.217 15.505C322.41 14.5883 321.402 13.8917 320.192 13.415C318.982 12.9383 317.589 12.7 316.012 12.7C314.399 12.7 312.987 12.9383 311.777 13.415C310.567 13.8917 309.559 14.5883 308.752 15.505C307.945 16.4217 307.34 17.54 306.937 18.86C306.534 20.18 306.332 21.6833 306.332 23.37V25.79C306.332 27.44 306.534 28.925 306.937 30.245C307.34 31.565 307.945 32.6833 308.752 33.6C309.559 34.5167 310.567 35.2133 311.777 35.69C312.987 36.1667 314.399 36.405 316.012 36.405Z" fill="black"/>
<path d="M349.741 43.445V13.745H337.476V5.66H371.851V13.745H359.586V43.445H349.741Z" fill="black"/>
<path d="M22.6243 5.06901C23.2686 3.32778 25.7314 3.32778 26.3757 5.06901L30.7981 17.0203C31.0006 17.5677 31.4323 17.9994 31.9797 18.2019L43.931 22.6243C45.6722 23.2686 45.6722 25.7314 43.931 26.3757L31.9797 30.7981C31.4323 31.0006 31.0006 31.4323 30.7981 31.9797L26.3757 43.931C25.7314 45.6722 23.2686 45.6722 22.6243 43.931L18.2019 31.9797C17.9994 31.4323 17.5677 31.0006 17.0203 30.7981L5.06901 26.3757C3.32778 25.7314 3.32778 23.2686 5.06901 22.6243L17.0203 18.2019C17.5677 17.9994 17.9994 17.5677 18.2019 17.0203L22.6243 5.06901Z" fill="black"/>
</svg>
