<svg width="182" height="82" viewBox="0 0 182 82" fill="none" xmlns="http://www.w3.org/2000/svg">
<path d="M64.5606 39C77.968 39 85.4212 31.875 85.4212 19.4722V1H71.181V20C71.181 24.6972 68.6827 27.2833 64.8104 27.2833C60.9797 27.2833 58.4814 24.6972 58.4814 20V1H43.8665V19.4722C43.8665 31.875 51.2365 39 64.5606 39Z" stroke="#FAFAFA"/>
<path d="M87.613 37.9444H99.4382L99.3965 19.3139V15.5139L100.646 19.3139L106.891 37.9444H117.467L123.713 19.3139L124.962 15.5139V19.3139L124.921 37.9444H137.204V1H119.341L112.429 21.9L108.932 11.45L105.476 1H87.613V37.9444Z" stroke="#FAFAFA"/>
<path d="M139.529 37.9444H154.144V26.7556H167.967C176.003 26.7556 181 21.8472 181 13.8778C181 5.85556 176.003 1 167.926 1H139.529V37.9444ZM163.179 10.9222C165.303 10.9222 166.552 12.1889 166.552 14.3528C166.552 16.4639 165.303 17.6778 163.179 17.6778H154.144V10.9222H163.179Z" stroke="#FAFAFA"/>
<path d="M23.2778 80.9488C36.4592 80.9488 44.2922 75.6739 44.2922 68.0943C44.2922 58.5687 32.5848 57.8005 24.3306 56.9299C19.8245 56.469 16.3291 56.0081 16.3291 54.062C16.3291 52.6792 17.8452 51.5013 21.8881 51.5013C25.9309 51.5013 28.4577 52.9865 29.3 55.5984H43.5342C41.597 47.9164 34.1009 43.0512 21.5091 43.0512C7.90654 43.0512 1 48.4286 1 55.9057C1 66.0458 13.4655 66.4043 21.7617 67.1725C25.9309 67.5822 29.0473 68.0431 29.0473 69.938C29.0473 71.4744 27.1943 72.7035 22.9409 72.7035C18.7717 72.7035 16.3291 71.2695 15.529 68.6065H1.04211C2.81086 76.3908 10.6018 80.9488 23.2778 80.9488Z" stroke="#FAFAFA"/>
<path d="M45.9537 79.9245H60.7354V66.9164H73.7904V79.9245H88.53V44.0755H73.7904V56.6739H60.7354V44.0755H45.9537V79.9245Z" stroke="#FAFAFA"/>
<path d="M113.34 81C126.9 81 136.46 73.5229 136.46 62C136.46 50.4771 126.9 43 113.34 43C99.7794 43 90.2198 50.4771 90.2198 62C90.2198 73.5229 99.7794 81 113.34 81ZM113.34 70.1429C108.792 70.1429 105.549 67.2749 105.549 62.0512C105.549 56.8275 108.792 54.0108 113.34 54.0108C117.888 54.0108 121.131 56.8275 121.131 62.0512C121.131 67.2749 117.888 70.1429 113.34 70.1429Z" stroke="#FAFAFA"/>
<path d="M151.1 79.9245H165.881V54.2668H181V44.0755H135.981V54.2668H151.1V79.9245Z" stroke="#FAFAFA"/>
</svg>
