<svg width="3825" height="3685" viewBox="0 0 3825 3685" fill="none" xmlns="http://www.w3.org/2000/svg">
<g clip-path="url(#clip0_81_39)">
<mask id="mask0_81_39" style="mask-type:luminance" maskUnits="userSpaceOnUse" x="0" y="0" width="3825" height="3685">
<path d="M3824.27 0H0V3684.1H3824.27V0Z" fill="white"/>
</mask>
<g mask="url(#mask0_81_39)">
<path d="M3795.33 1850.96C3761.81 1780.46 3708.41 1725.76 3669.51 1692.28C3623.73 1652.88 3573.63 1619.7 3525.18 1587.61C3518.94 1583.48 3512.64 1579.31 3506.32 1575.1C3539.75 1446.5 3529.42 1320.41 3475.12 1191.27L3390.25 989.46L3342.66 1203.13C3332.01 1250.95 3322.65 1284.54 3313.72 1308.81C3228.56 1160.56 3096.38 1072.77 2919.46 1047.31C2898.54 1025.83 2878.09 1004.23 2857.23 982.01C2881.87 960.26 2898.45 934.69 2906.75 905.52C2921.2 854.73 2908.57 799.88 2869.17 742.48L2867.16 739.54C2852.12 717.58 2833.4 690.25 2805.08 670.25C2787.05 657.53 2768.65 644.2 2750.85 631.3C2685.68 584.1 2618.28 535.29 2544.03 496.91C2491.7 469.85 2465.88 441.08 2451.95 394.3C2445.06 371.12 2436.6 346.52 2421.54 323.57C2410.37 306.53 2399.72 288.5 2388.45 269.39C2357.88 217.6 2326.25 164.04 2278.65 121.34C2217.69 66.68 2148.05 37.78 2077.25 37.78C1957.67 37.78 1856.23 119.67 1812.5 251.51C1808.47 263.67 1804.97 275.73 1801.73 287.63C1780.66 287.41 1759.66 287.1 1739.04 286.8C1700.75 286.23 1661.16 285.65 1622.13 285.65C1559.84 285.65 1508.64 287.16 1461.03 290.38C1454.24 290.84 1447.84 291.07 1442.01 291.07C1400.38 291.07 1381 282.28 1355.17 232.84C1278.96 87.04 1143.11 0 991.76 0C909.2 0 825.35 26.02 749.28 75.25C668.53 127.5 601.59 194.13 528.67 269.49C481.04 318.7 439.34 345.31 389.23 358.48C347.77 369.38 278.43 409.45 268.91 470.58C259.18 533.02 311.32 591.99 340.25 614.44C345.86 618.8 351.45 623.03 357.01 627.14C327.91 632.63 301.31 647.87 281.75 670.77L266.58 688.54C227.63 734.14 224.64 800.15 259.29 849.07L376.84 1015.05C297.4 1156.24 238.14 1309.4 200.35 1471.22C186.31 1474.74 172.97 1478.2 161.09 1481.28C142.51 1486.1 123.3 1491.1 104.94 1495.5C56.4196 1507.16 18.2096 1546.18 7.58964 1594.92L2.98964 1616.02C-9.40036 1672.95 17.8796 1731.87 69.3196 1759.29L159.62 1807.43C151.65 2011.44 179.07 2213.94 241.26 2410.5C229.3 2419.91 216.04 2429.34 202.04 2439.3C194.46 2444.7 186.88 2450.09 179.38 2455.56C126.25 2494.26 110.09 2566.85 141.78 2624.4L155.96 2650.15C178.98 2691.95 222.95 2717.92 270.7 2717.92C289.35 2717.92 308.46 2718.11 326.95 2718.28C343.52 2718.44 360.59 2718.6 377.61 2718.64C474.03 2896.58 595.6 3042.39 739.1 3152.17C751.19 3161.41 764.76 3172.2 775.87 3182.92C772.76 3191.84 769.57 3201.05 766.39 3210.39C758.22 3234.46 755.91 3256.46 754.36 3271.11C754.01 3274.39 753.72 3277.49 753.31 3280.17C746.33 3326.14 764.52 3372.77 800.79 3401.86L812.99 3411.65C836.16 3430.24 865.28 3440.48 894.99 3440.48C918.32 3440.48 941.28 3434.24 961.35 3422.42L1070.65 3358.2C1228.73 3422.97 1390.73 3455.78 1552.51 3455.78C1627.59 3455.78 1703.89 3448.7 1779.87 3434.73C1780.11 3435.01 1780.33 3435.3 1780.56 3435.57C1800.87 3471.4 1823.64 3501.97 1845.7 3531.56L1851.8 3539.75C1867.5 3560.88 1883.27 3580.09 1901.63 3602.47C1909.88 3612.52 1918.75 3623.33 1928.47 3635.37C1953.45 3666.32 1990.61 3684.07 2030.4 3684.07C2041.64 3684.07 2052.85 3682.62 2063.72 3679.76C2113.54 3666.66 2151.18 3625.38 2159.59 3574.6C2162.69 3555.92 2165.71 3539.17 2168.66 3522.83C2175.23 3486.44 2180.89 3455.02 2184.04 3420.74C2188.62 3371.01 2187.49 3323.86 2185.78 3284.3C2185.73 3283.14 2185.67 3281.97 2185.6 3280.81C2239.71 3243.15 2293.26 3204.28 2345.31 3166.52C2377.71 3143 2411.23 3118.68 2444.25 3095.1C2457.14 3085.9 2471.73 3075.48 2482.01 3072.2C2506.03 3064.51 2530.58 3057.98 2556.56 3051.07C2591.35 3041.82 2627.32 3032.24 2663.05 3019.42C2907.23 2931.85 3108.71 2875.8 3297.1 2843.04C3365.83 2831.08 3430.53 2799.46 3490.19 2767.07C3548.73 2735.3 3597.65 2678.88 3624.41 2612.28C3655.05 2536.01 3653.89 2452.51 3621.14 2377.16C3610.63 2353 3599.75 2328.74 3589.23 2305.27L3582.9 2291.14C3580.25 2285.22 3577.47 2279.04 3574.9 2273.19C3579.47 2271.28 3584.21 2269.35 3588.78 2267.48L3592.96 2265.77C3696.2 2223.51 3774.1 2151 3806.69 2066.83C3833.51 1997.59 3829.57 1922.93 3795.32 1850.92L3795.33 1850.96ZM3566.52 2201.28C3481.65 2236.02 3481.07 2234.54 3519.28 2319.87C3531.97 2348.21 3544.74 2376.52 3557.12 2404.99C3612.93 2533.36 3541.45 2659.93 3456.88 2705.83C3402.9 2735.14 3344.69 2764.01 3285.12 2774.37C3063.6 2812.9 2850.36 2878.19 2639.47 2953.83C2581.18 2974.74 2519.81 2986.91 2460.72 3005.83C2440.29 3012.37 2421.48 3025.7 2403.69 3038.4C2308.5 3106.35 2214.81 3176.46 2118.34 3242.55C2115.36 3244.59 2112.65 3246.6 2110.17 3248.62C2113.41 3260.57 2115.46 3273.47 2116.07 3287.37C2117.68 3324.59 2118.76 3368.79 2114.56 3414.41C2111.67 3445.73 2106.25 3475.82 2099.96 3510.66C2096.98 3527.14 2093.91 3544.18 2090.75 3563.26C2086.81 3587.02 2069.27 3606.25 2045.96 3612.38C2040.8 3613.73 2035.57 3614.39 2030.4 3614.39C2012.17 3614.39 1994.57 3606.24 1982.78 3591.64C1972.89 3579.4 1963.86 3568.39 1955.48 3558.17C1937.77 3536.59 1922.48 3517.96 1907.82 3498.24L1901.67 3489.98C1880.15 3461.11 1857.91 3431.26 1839.3 3397.75C1838.21 3395.84 1834.15 3390.97 1831.19 3387.42C1825.15 3380.15 1816.96 3370.29 1809.71 3357.84C1807.73 3358.15 1805.7 3358.5 1803.56 3358.97C1554.5 3412.49 1313.23 3386.16 1078.89 3286.12C1073.94 3284.01 1068.42 3282.75 1062.61 3282.09L925.97 3362.37C916.35 3368.02 905.64 3370.8 894.97 3370.8C881.34 3370.8 867.77 3366.26 856.66 3357.34L850.56 3352.44L844.47 3347.55C827.47 3333.91 819.02 3312.25 822.29 3290.71C822.84 3287.11 823.29 3282.87 823.76 3278.38C825.11 3265.54 826.79 3249.57 832.46 3232.87C839.64 3211.75 847.1 3190.61 854.52 3169.78C839.49 3143.97 813.08 3121.02 781.51 3096.86C633.28 2983.46 519.49 2837.61 432.04 2672.59C427.24 2663.53 422.28 2655.59 416.87 2648.79C407.03 2648.91 396.73 2648.98 385.72 2648.98C366.26 2648.98 346.61 2648.79 327.61 2648.61C308.89 2648.43 289.55 2648.24 270.68 2648.24C248.38 2648.24 227.84 2636.12 217.09 2616.59L213.38 2609.84L202.92 2590.84C188.07 2563.88 195.59 2530.09 220.48 2511.97C227.79 2506.64 235.16 2501.4 242.52 2496.16C258.15 2485.04 272.9 2474.53 286.83 2463.46L305.2 2448.86C310.85 2444.38 316.57 2439.82 322.26 2435.29C322.03 2433.4 321.68 2431.58 321.12 2429.91C248.52 2218.39 218 2001.35 230.9 1778.34C231.15 1774.07 231.11 1770.13 230.85 1766.44L102.16 1697.84C78.0096 1684.97 65.3596 1657.64 71.1796 1630.92L73.2896 1621.24L75.7696 1609.82C80.7596 1586.91 98.4296 1568.87 121.25 1563.39C140.24 1558.82 159.78 1553.75 178.67 1548.84C204.57 1542.12 230.96 1535.3 257.77 1529.23C259.12 1526.43 260.18 1523.62 260.77 1520.85C298.44 1343.84 361.99 1177.03 453.73 1021.39C455.95 1017.61 457.81 1014.04 459.34 1010.61C458.77 1009.89 458.15 1009.23 457.61 1008.47L316.24 808.85C300.07 786.01 301.47 755.14 319.65 733.86L321.59 731.59L334.82 716.09C346.6 702.3 363.69 694.64 381.36 694.64C386.26 694.64 391.2 695.23 396.09 696.44C415.32 701.22 434.56 705.96 453.8 710.7C518.22 726.59 584.7 743.02 650.27 760.21C652.44 758 654.61 755.6 656.76 752.87C691.65 708.62 729.25 666.5 766.3 623.95C625.9 699.99 500.65 650.7 383.04 559.4C359.99 541.5 334.17 504.92 337.85 481.34C341.3 459.21 379.53 433.16 406.97 425.94C476.98 407.54 529.12 369.33 578.81 317.99C643.2 251.46 710.12 183.68 787.2 133.8C974.88 12.36 1190.11 67.71 1293.27 265.15C1334.21 343.49 1381.13 365.71 1465.71 359.99C1594.38 351.27 1724.09 357.71 1855.37 357.71C1863.15 329.35 1869.59 300.98 1878.71 273.49C1934.99 103.82 2098.3 53.37 2232.01 173.27C2287.52 223.05 2321.03 297.61 2363.16 361.83C2373.38 377.41 2379.66 396.13 2385.05 414.21C2405.28 482.16 2446.36 524.96 2511.95 558.86C2601.39 605.11 2682 668.77 2764.8 727.23C2783.85 740.67 2798.05 762.18 2811.61 781.94C2865.96 861.13 2848.68 921.54 2761.93 959.8C2754.57 963.04 2747.07 965.99 2746.73 966.13C2789.46 1011.58 2831.14 1056.82 2874.12 1100.79C2881.83 1108.67 2894.55 1114.29 2905.66 1115.82C3101.02 1142.73 3227.51 1253.17 3295.85 1434.94C3296.32 1436.18 3298.62 1436.73 3300.05 1437.6C3355.42 1403.24 3380.09 1356.02 3410.76 1218.32C3467.72 1353.78 3468.18 1479.19 3424.59 1604.03C3492.9 1651.52 3563.16 1692.85 3623.94 1745.16C3667.28 1782.46 3707.94 1829.76 3732.27 1880.92C3801.08 2025.6 3699.95 2146.69 3566.5 2201.32L3566.52 2201.28Z" fill="white"/>
<path d="M727.559 877.12C747.169 847 768.259 817.5 790.939 788.73C809.289 733.71 791.649 706.81 751.169 742.88C751.169 742.88 731.929 758.05 701.189 788.12C713.839 801.74 722.349 818.39 725.439 833.56C728.299 847.59 728.899 862.27 727.549 877.11L727.559 877.12Z" fill="#4CBB17"/>
<path d="M630.369 2308.6C491.779 1929.04 451.459 1436.37 645.519 1024.44C634.259 1033.39 622.159 1041.14 609.369 1047.27C600.989 1051.3 591.929 1053.3 582.889 1053.3C572.769 1053.3 562.669 1050.79 553.539 1045.81C545.599 1041.47 538.849 1035.5 533.639 1028.43C525.319 1032.35 516.439 1034.25 507.619 1034.25C506.569 1034.25 505.519 1034.12 504.469 1034.06C426.429 1157.34 349.379 1319.38 306.219 1519.38C313.919 1518.03 321.629 1516.74 329.389 1515.63C331.749 1515.18 338.379 1512.74 342.769 1511.13C357.309 1505.79 377.229 1498.46 399.909 1498.46C436.239 1498.46 467.469 1516.92 487.839 1550.44C529.739 1619.37 512.709 1729.66 470.109 1778.55C459.119 1791.15 443.449 1798.72 426.729 1799.47C425.809 1799.51 424.889 1799.53 423.959 1799.53C413.469 1799.53 403.229 1796.83 394.179 1791.79C382.509 1808.85 363.359 1818.4 343.639 1818.4C333.919 1818.4 324.059 1816.08 314.889 1811.2L272.289 1788.49C271.429 1809.99 270.959 1831.8 270.959 1853.95C270.959 2016.85 297.529 2210.85 360.899 2404.23C382.379 2386.8 403.669 2369.09 424.079 2351.09C445.969 2331.78 469.279 2321.99 493.359 2321.99C532.839 2321.99 559.769 2348.7 568.629 2357.48C641.509 2429.76 658.559 2519.73 613.119 2592.28C611.169 2595.39 608.979 2598.27 606.579 2600.91C598.429 2612.08 586.489 2620.53 572.169 2624.15C564.519 2626.09 556.369 2628.58 547.749 2631.22C525.509 2638.04 500.289 2645.78 472.319 2647.14C469.009 2647.3 465.659 2647.45 462.279 2647.59C556.169 2829.65 689.129 2998.35 870.669 3124.61C881.979 3092.92 893.379 3060.63 903.739 3028.77C925.109 2963.06 971.119 2953.25 996.639 2953.25C1010.09 2953.25 1024.22 2955.89 1039.83 2961.33C1092.94 2979.85 1157.58 3010.42 1186.26 3083.05C1192.63 3099.18 1191.84 3117.25 1184.09 3132.77C1179.51 3141.94 1172.75 3149.71 1164.54 3155.48C1179.2 3184.11 1169.11 3219.49 1141.06 3235.97L1111.32 3253.44C1231.35 3300.95 1366.66 3332.67 1518.89 3343.86C1627.92 3343.86 1719.67 3336.73 1796.37 3325.78C1790.97 3304.61 1790.99 3279.06 1803.21 3249.08C1811.21 3229.48 1828.75 3215.45 1849.53 3211.9C1850.91 3209.63 1852.48 3207.5 1854.14 3205.45C1571.12 3219.57 1010.05 3137.05 630.379 2308.6H630.369Z" fill="#4CBB17"/>
<path d="M2063.09 3179.4C2081.82 3192.17 2096.2 3210.44 2105.22 3233.38C2130.15 3219.13 2140.9 3209.38 2140.9 3209.38C2140.9 3209.38 2133.56 3176.68 2063.09 3179.4Z" fill="#4CBB17"/>
<path d="M1095.17 2812.54C1071.68 2771.5 1055.23 2723.77 1023.57 2690.5C799.82 2455.38 688.54 2176.42 688.53 1853.07C688.53 1812.25 670.49 1791.92 637.34 1774.77C592.93 2128.3 763.08 2585.01 1095.18 2812.54H1095.17Z" fill="white"/>
<path d="M667.109 865.711C667.329 858.861 666.819 852.181 665.519 845.791C664.639 841.511 661.929 836.571 658.459 832.261C654.429 827.261 649.359 823.101 644.709 821.871C579.079 804.561 513.179 788.261 447.269 772.001C425.299 766.581 403.339 761.171 381.369 755.721C376.319 761.651 371.259 767.571 366.199 773.501C413.319 840.031 460.449 906.581 507.569 973.121C512.699 969.711 517.839 966.281 522.969 962.871C493.959 918.971 464.969 875.071 435.959 831.161C440.379 828.001 444.789 824.831 449.209 821.661C451.509 825.621 454.009 829.421 456.669 833.081C459.319 836.741 462.139 840.261 465.099 843.671C496.069 879.421 541.549 902.851 566.309 943.871C574.609 957.621 580.579 973.351 582.889 992.181C592.709 987.471 602.119 981.181 610.859 973.721C639.379 949.391 660.649 912.751 665.859 878.401C666.499 874.131 666.989 869.891 667.119 865.721L667.109 865.711Z" fill="white"/>
<path d="M343.69 1757.26C347.02 1751.34 350.35 1745.43 353.68 1739.51C328.73 1724.47 303.78 1709.43 278.82 1694.38C248.19 1675.91 217.56 1657.44 186.92 1638.98C217.55 1650.65 249.82 1658.69 281.71 1667.72C296.58 1671.94 311.38 1676.36 325.88 1681.49C339.17 1686.19 352.22 1691.47 364.86 1697.7C385.94 1708.08 405.88 1721.08 423.97 1738.39C432.5 1728.6 439.42 1713.93 444.09 1697.05C445.96 1690.3 447.47 1683.2 448.57 1675.92C453.56 1643.14 450.44 1606.69 435.54 1582.16C434.38 1580.25 433.19 1578.54 431.99 1576.91C431.71 1576.53 431.421 1576.15 431.141 1575.78C429.951 1574.24 428.73 1572.8 427.5 1571.51C427.36 1571.36 427.22 1571.24 427.08 1571.1C425.94 1569.93 424.78 1568.89 423.61 1567.93C423.32 1567.69 423.03 1567.44 422.73 1567.22C421.46 1566.24 420.17 1565.35 418.87 1564.57C418.63 1564.43 418.4 1564.33 418.17 1564.2C417.01 1563.54 415.83 1562.97 414.65 1562.46C414.37 1562.34 414.08 1562.21 413.8 1562.1C412.46 1561.57 411.12 1561.13 409.75 1560.79C409.46 1560.72 409.171 1560.66 408.88 1560.6C407.66 1560.32 406.44 1560.1 405.21 1559.94C404.97 1559.91 404.73 1559.86 404.49 1559.83C403.1 1559.68 401.68 1559.61 400.27 1559.59C400.15 1559.59 400.02 1559.57 399.9 1559.57C399.78 1559.57 399.66 1559.59 399.54 1559.59C397.16 1559.61 394.76 1559.8 392.36 1560.14C392.22 1560.16 392.081 1560.17 391.951 1560.2C389.451 1560.56 386.94 1561.09 384.42 1561.72C384.24 1561.77 384.06 1561.82 383.88 1561.86C381.45 1562.49 379.01 1563.21 376.58 1563.99C376.41 1564.05 376.23 1564.1 376.06 1564.16C373.53 1564.99 371.01 1565.87 368.5 1566.78C368.31 1566.84 368.13 1566.91 367.95 1566.97C365.44 1567.89 362.94 1568.81 360.46 1569.71C357.98 1570.62 355.52 1571.49 353.1 1572.3C353.01 1572.32 352.94 1572.35 352.85 1572.38C350.51 1573.16 348.19 1573.86 345.91 1574.46C345.7 1574.51 345.49 1574.57 345.28 1574.62C342.93 1575.22 340.61 1575.72 338.35 1576.06C323.4 1578.22 308.54 1580.95 293.72 1583.97C274.61 1587.86 255.59 1592.27 236.62 1597.01C219.76 1601.21 202.94 1605.61 186.11 1609.98C169.28 1614.34 152.44 1618.67 135.57 1622.73C134.05 1629.76 132.51 1636.79 130.98 1643.82C179.44 1669.66 227.91 1695.49 276.38 1721.33C298.83 1733.3 321.27 1745.26 343.72 1757.23L343.69 1757.26Z" fill="white"/>
<path d="M574.339 2481.54C568.129 2454.32 551.589 2426.71 525.529 2400.85C524.179 2399.51 522.859 2398.26 521.539 2397.05C521.119 2396.66 520.699 2396.32 520.279 2395.95C519.399 2395.16 518.499 2394.39 517.629 2393.66C517.129 2393.25 516.629 2392.88 516.139 2392.49C515.349 2391.88 514.569 2391.27 513.789 2390.71C513.259 2390.33 512.729 2389.99 512.199 2389.63C511.459 2389.14 510.719 2388.66 509.979 2388.21C509.439 2387.89 508.899 2387.59 508.359 2387.29C507.639 2386.89 506.909 2386.53 506.179 2386.18C505.639 2385.93 505.099 2385.69 504.569 2385.47C503.839 2385.16 503.109 2384.9 502.379 2384.66C501.839 2384.48 501.309 2384.3 500.769 2384.15C500.019 2383.95 499.259 2383.79 498.509 2383.65C497.989 2383.54 497.479 2383.43 496.959 2383.36C496.149 2383.25 495.339 2383.21 494.519 2383.18C494.139 2383.16 493.759 2383.09 493.369 2383.09C493.269 2383.09 493.169 2383.11 493.069 2383.11C492.649 2383.11 492.219 2383.16 491.789 2383.18C491.039 2383.22 490.299 2383.28 489.539 2383.38C489.059 2383.44 488.579 2383.55 488.099 2383.64C487.389 2383.78 486.659 2383.93 485.939 2384.13C485.429 2384.27 484.919 2384.43 484.409 2384.6C483.689 2384.83 482.969 2385.08 482.239 2385.37C481.709 2385.57 481.189 2385.79 480.649 2386.03C479.909 2386.35 479.169 2386.73 478.409 2387.12C477.879 2387.39 477.349 2387.66 476.809 2387.96C476.019 2388.41 475.219 2388.9 474.419 2389.41C473.899 2389.74 473.389 2390.05 472.859 2390.41C471.969 2391.02 471.049 2391.69 470.139 2392.37C469.689 2392.71 469.239 2393.02 468.779 2393.38C467.399 2394.47 465.989 2395.63 464.559 2396.89C437.789 2420.5 410.149 2443.14 382.279 2465.51C363.219 2480.8 344.069 2496 324.959 2511.21C302.859 2528.8 279.389 2544.67 256.539 2561.31C261.269 2569.9 265.989 2578.48 270.709 2587.06C290.019 2587.06 309.329 2587.25 328.649 2587.43C346.269 2587.6 363.889 2587.75 381.509 2587.77C382.919 2587.77 384.339 2587.8 385.749 2587.8C387.369 2587.8 388.989 2587.78 390.619 2587.78C393.489 2587.78 396.369 2587.76 399.239 2587.75C404.219 2587.73 409.199 2587.68 414.179 2587.62C417.079 2587.59 419.979 2587.55 422.879 2587.51C426.199 2587.45 429.519 2587.38 432.839 2587.31C434.759 2587.27 436.679 2587.21 438.609 2587.16C441.139 2587.1 443.669 2587.04 446.199 2586.97C453.919 2586.73 461.639 2586.43 469.359 2586.06C498.909 2584.62 527.919 2572.27 557.189 2564.86H327.129C326.519 2560.65 325.909 2556.45 325.309 2552.24C353.759 2547.24 382.199 2542.21 410.659 2537.21C429.029 2533.98 447.389 2530.76 465.769 2527.6C475.099 2526 484.469 2524.63 493.839 2523.29C503.209 2521.94 512.589 2520.61 521.929 2519.08C521.949 2519.08 521.949 2519.08 521.959 2519.08C524.119 2518.73 526.179 2518.47 528.159 2518.29C528.819 2518.23 529.419 2518.22 530.059 2518.18C531.359 2518.09 532.649 2518.01 533.849 2518C534.019 2518 534.209 2517.98 534.369 2517.98C535.379 2517.98 536.329 2518.04 537.289 2518.09C537.659 2518.11 538.069 2518.11 538.429 2518.14C539.899 2518.25 541.299 2518.44 542.639 2518.68C542.979 2518.74 543.289 2518.84 543.609 2518.92C544.579 2519.13 545.529 2519.36 546.429 2519.64C546.879 2519.78 547.279 2519.96 547.709 2520.11C548.439 2520.39 549.149 2520.67 549.829 2520.99C550.259 2521.2 550.669 2521.42 551.059 2521.65C551.679 2521.99 552.269 2522.36 552.839 2522.74C553.209 2523 553.589 2523.27 553.929 2523.54C554.469 2523.97 554.979 2524.43 555.469 2524.92C555.779 2525.21 556.089 2525.5 556.379 2525.82C556.889 2526.38 557.349 2527 557.799 2527.63C557.989 2527.91 558.219 2528.17 558.419 2528.47C559.019 2529.41 559.559 2530.41 560.039 2531.48C560.129 2531.68 560.189 2531.92 560.279 2532.12C560.639 2533.01 560.989 2533.93 561.259 2534.9C561.389 2535.33 561.479 2535.79 561.579 2536.24C561.769 2537.04 561.959 2537.86 562.099 2538.71C562.179 2539.23 562.249 2539.77 562.309 2540.32C562.419 2541.16 562.499 2542.03 562.549 2542.92C562.579 2543.5 562.609 2544.09 562.629 2544.7C562.649 2545.62 562.629 2546.59 562.609 2547.56C562.589 2548.17 562.589 2548.77 562.549 2549.4C562.489 2550.49 562.379 2551.63 562.269 2552.78C562.209 2553.34 562.169 2553.87 562.099 2554.44C561.889 2556.18 561.619 2557.98 561.279 2559.84C574.389 2538.9 579.199 2516.04 576.279 2492.68C575.819 2488.97 575.199 2485.26 574.349 2481.54H574.339Z" fill="white"/>
<path d="M1129.35 3105.47C1110.55 3057.85 1067.95 3035.87 1019.68 3019.04C1017.6 3018.32 1015.6 3017.69 1013.65 3017.13C1013.01 3016.95 1012.42 3016.81 1011.79 3016.65C1010.5 3016.31 1009.22 3015.98 1007.99 3015.71C1007.28 3015.56 1006.6 3015.45 1005.91 3015.33C1004.82 3015.13 1003.74 3014.94 1002.68 3014.81C1001.98 3014.72 1001.3 3014.66 1000.62 3014.6C999.629 3014.51 998.659 3014.45 997.699 3014.43C997.349 3014.43 996.979 3014.37 996.629 3014.37C996.389 3014.37 996.179 3014.43 995.939 3014.43C994.199 3014.46 992.509 3014.58 990.899 3014.84C990.789 3014.86 990.679 3014.86 990.579 3014.87C988.889 3015.16 987.299 3015.62 985.749 3016.18C985.329 3016.33 984.919 3016.5 984.519 3016.67C983.259 3017.19 982.049 3017.81 980.879 3018.51C980.599 3018.68 980.319 3018.82 980.049 3019C978.669 3019.9 977.369 3020.95 976.109 3022.13C975.809 3022.41 975.519 3022.74 975.229 3023.04C974.229 3024.05 973.269 3025.16 972.339 3026.36C972.059 3026.72 971.759 3027.08 971.479 3027.47C970.369 3029.02 969.299 3030.69 968.279 3032.54C968.099 3032.86 967.939 3033.21 967.769 3033.54C966.919 3035.15 966.089 3036.89 965.299 3038.72C965.039 3039.31 964.789 3039.9 964.549 3040.5C963.639 3042.75 962.759 3045.09 961.919 3047.64C949.749 3085.06 936.539 3122.13 923.269 3159.19C918.249 3173.21 913.219 3187.22 908.239 3201.25C902.189 3218.29 896.209 3235.36 890.389 3252.47C887.219 3261.8 885.979 3271.79 884.909 3281.83C884.479 3285.84 884.069 3289.87 883.589 3293.87C883.349 3295.86 883.079 3297.86 882.779 3299.84C886.839 3303.1 890.909 3306.36 894.969 3309.62C943.919 3280.87 992.849 3252.11 1041.8 3223.35C1064.55 3209.99 1087.3 3196.62 1110.05 3183.25C1106.52 3177.11 1102.99 3170.97 1099.46 3164.83C1073.06 3180.88 1046.67 3196.93 1020.28 3212.98C987.199 3233.09 954.129 3253.21 921.039 3273.32C918.739 3269.73 916.449 3266.13 914.159 3262.53C942.709 3244.89 967.059 3221.64 991.489 3198.19C1031.11 3160.14 1070.97 3121.54 1129.35 3105.44V3105.47Z" fill="white"/>
<path d="M3407.6 1367.42C3399.13 1381.6 3392.88 1395.97 3383.25 1407.53C3341.55 1457.53 3301.51 1509.35 3255.62 1555.27C3225.07 1585.83 3187.11 1607.28 3139.12 1579.05C3127.88 1572.43 3100.64 1578.43 3090.04 1588.43C3070.44 1606.93 3057.7 1632.68 3042.41 1654.96C3040.91 1653.55 3037.96 1651.58 3036.04 1648.87C2959.61 1541.01 2936.95 1541.17 2849.25 1637.63C2832.72 1655.8 2797.21 1664.28 2771.15 1662.99C2758.62 1662.37 2745.78 1629.48 2736.8 1609.52C2730.65 1595.83 2731.4 1579.17 2728.25 1564C2718.41 1516.81 2708.2 1469.71 2698.12 1422.56C2692.77 1422.32 2687.41 1422.08 2682.05 1421.85C2655.37 1532.25 2629.74 1643.19 2532.82 1720.26C2452.16 1660.2 2465.46 1624.43 2372.2 1766C2347.56 1753.74 2324.06 1735.24 2298.2 1730.95C2268.47 1726.02 2223.85 1721.37 2207.92 1737.93C2133 1815.88 2047.22 1815.31 1953.69 1790.66C1942.23 1787.64 1929.55 1789.61 1917.65 1787.83C1863.55 1779.75 1833.01 1807.19 1815.87 1854.71C1778.16 1959.23 1845.27 2083.55 1957.58 2117.65C2047.37 2144.9 2081.64 2129.13 2120.68 2042.68C2126.92 2028.85 2133.48 2015.16 2139.65 2001.93C2236.32 2024.04 2322.76 1988.44 2398.95 1895.11C2465.81 1936.14 2493.58 1878.55 2527.25 1839.83C2552.1 1811.25 2569.45 1776.53 2617.8 1803.12C2628.15 1808.8 2651.24 1799.02 2664.43 1790.28C2691.26 1772.49 2715.35 1750.55 2740.4 1730.46C2789.43 1784.51 2813.85 1781.14 2895.4 1710.75C2948.27 1729.66 3003.06 1771.54 3049.47 1696.48C3061.9 1707.78 3072.26 1716.49 3081.79 1726.02C3106.04 1750.27 3126.87 1780.02 3169.47 1760.82C3209.05 1742.98 3195.48 1710.47 3196.44 1680.61C3196.9 1666.46 3200.9 1643.71 3209.24 1640.56C3222.06 1635.73 3240.14 1643.79 3255.72 1647.51C3280.43 1653.41 3309.97 1672.36 3328.61 1664.59C3407.05 1631.86 3454.91 1446.29 3407.61 1367.43L3407.6 1367.42Z" fill="white"/>
<path d="M2054.92 3289.75C2054.79 3286.73 2054.57 3283.81 2054.27 3280.99C2054.17 3280.02 2054.02 3279.11 2053.9 3278.16C2053.66 3276.27 2053.42 3274.39 2053.11 3272.6C2052.92 3271.55 2052.7 3270.54 2052.49 3269.52C2052.17 3267.92 2051.83 3266.33 2051.44 3264.82C2051.17 3263.79 2050.88 3262.81 2050.59 3261.81C2050.44 3261.32 2050.31 3260.79 2050.16 3260.3C2049.87 3259.38 2049.56 3258.51 2049.24 3257.62C2048.9 3256.67 2048.54 3255.74 2048.17 3254.81C2047.65 3253.51 2047.09 3252.26 2046.51 3251.03C2046.1 3250.16 2045.69 3249.31 2045.25 3248.48C2044.61 3247.28 2043.93 3246.14 2043.22 3245.02C2042.76 3244.27 2042.3 3243.51 2041.81 3242.8C2041.02 3241.66 2040.17 3240.59 2039.32 3239.54C2038.83 3238.94 2038.36 3238.31 2037.85 3237.73C2036.8 3236.55 2035.67 3235.47 2034.52 3234.41C2034.13 3234.05 2033.77 3233.65 2033.38 3233.3C2031.79 3231.93 2030.11 3230.66 2028.34 3229.49C2027.98 3229.25 2027.59 3229.07 2027.23 3228.84C2025.79 3227.94 2024.33 3227.09 2022.78 3226.32C2022.09 3225.99 2021.35 3225.7 2020.64 3225.39C2019.34 3224.82 2018.04 3224.26 2016.67 3223.78C2015.83 3223.48 2014.94 3223.23 2014.07 3222.97C2012.74 3222.56 2011.4 3222.18 2010 3221.84C2009.05 3221.62 2008.06 3221.43 2007.08 3221.24C2005.68 3220.97 2004.24 3220.73 2002.77 3220.53C2001.72 3220.38 2000.66 3220.26 1999.58 3220.16C1998.07 3220.01 1996.51 3219.92 1994.94 3219.84C1993.83 3219.78 1992.72 3219.73 1991.57 3219.72C1991.04 3219.72 1990.56 3219.66 1990.03 3219.66C1988.73 3219.66 1987.36 3219.74 1986.02 3219.78C1985.12 3219.81 1984.24 3219.82 1983.33 3219.87C1980.48 3220.02 1977.56 3220.26 1974.54 3220.61C1958.43 3222.49 1942.76 3228.17 1927.81 3233.97C1923.33 3235.71 1918.91 3237.46 1914.56 3239.13C1910.21 3240.79 1905.94 3242.37 1901.74 3243.75C1912.01 3262.61 1922.08 3281.08 1932 3299.29C1947.78 3328.26 1963.19 3356.52 1978.38 3384.41C1988.28 3402.58 1998.1 3420.6 2007.89 3438.57C2012.79 3447.55 2017.68 3456.52 2022.57 3465.5C2019.33 3467.51 2016.11 3469.53 2012.87 3471.54C1976.3 3423.88 1939.72 3376.22 1900.32 3324.86C1896.44 3319.8 1892.45 3314.62 1888.51 3309.48C1879.13 3297.25 1869.62 3284.87 1859.86 3272.15C1858.61 3275.2 1857.6 3278.14 1856.79 3280.99C1855.98 3283.83 1855.38 3286.57 1854.96 3289.21C1854.55 3291.86 1854.32 3294.42 1854.26 3296.89C1854.2 3299.36 1854.3 3301.74 1854.55 3304.05C1855.01 3308.19 1855.99 3312.05 1857.29 3315.75C1857.44 3316.17 1857.53 3316.62 1857.69 3317.04C1859.21 3321.1 1861.17 3324.93 1863.4 3328.58C1864.51 3330.4 1865.69 3332.18 1866.92 3333.92C1871.83 3340.9 1877.49 3347.3 1882.64 3353.65C1885.21 3356.82 1887.65 3359.98 1889.8 3363.19C1890.88 3364.8 1891.88 3366.42 1892.79 3368.06C1911.08 3401.02 1934.34 3431.38 1956.93 3461.78C1977.41 3489.35 1999.88 3515.46 2030.38 3553.25C2040.32 3493.32 2049.71 3451.31 2053.63 3408.79C2055.44 3389.13 2056.19 3369.32 2056.28 3349.47C2056.37 3329.63 2055.79 3309.75 2054.93 3289.98C2054.93 3289.91 2054.93 3289.83 2054.91 3289.76L2054.92 3289.75Z" fill="white"/>
<path d="M2036.53 1082.58C2025.1 1053.31 2021.13 1035.8 2012.06 1021.53C1997.11 998.03 1983.17 963.85 1961.28 956.5C1849.05 918.76 1734.67 887.22 1620.3 856.22C1605.8 852.3 1572.67 863.64 1572.42 869.05C1570.42 911.93 1567.22 957.03 1578.36 997.63C1589.32 1037.58 1619.34 1065.32 1669 1068.21C1735.7 1072.09 1801.77 1087.5 1868.46 1090.8C1923.39 1093.52 1978.85 1085.81 2036.54 1082.59L2036.53 1082.58Z" fill="white"/>
<path d="M1920.61 1741.58C1955.98 1748.51 1992.72 1748.37 2028.22 1754.84C2070.76 1762.6 2107.15 1761.47 2141.19 1727.13C2194.49 1673.38 2257.64 1657.78 2329.67 1693.25C2339.57 1698.12 2361.41 1694.19 2368.68 1686.16C2393.31 1658.99 2413.87 1628.14 2433.1 1602.56C2391.08 1578.51 2332.36 1549.39 2278.81 1512.74C2240.97 1486.83 2218.32 1483.08 2206.18 1537.3C2170.88 1510.08 2143 1487.07 2113.61 1466.18C2041.2 1414.74 1986.35 1426.92 1942.47 1503.37C1934.39 1517.44 1927.57 1532.21 1918.74 1549.44C1904.71 1533.31 1895.14 1521.12 1884.37 1510.12C1818.24 1442.57 1753.04 1453.24 1730.51 1546.01C1706.39 1645.36 1729.94 1745.38 1765.57 1853.94C1787.25 1825.4 1802.53 1807.52 1815.3 1788.01C1840.62 1749.32 1873.39 1732.34 1920.62 1741.59L1920.61 1741.58Z" fill="white"/>
<path d="M1381.55 1306.97C1431.64 1268.82 1439.33 1216.74 1463.73 1169.51C1467.06 1163.06 1462.85 1148.85 1457.31 1142.29C1409.67 1085.76 1380.7 1021.48 1368.28 947.65V1022.94C1327.66 964.47 1331.39 886.73 1371.14 819.12C1410.05 752.93 1471.68 729.15 1539.39 748.65C1669.85 786.22 1797.7 833.08 1925.9 878.15C2023.4 912.44 2118.58 953.86 2217.24 984.12C2260.87 997.5 2322.5 1009.71 2347.14 956.18C2370.36 905.75 2325.68 866.53 2286.17 843.78C2190.91 788.93 2092.53 739.26 1993.82 690.74C1951.69 670.02 1905.58 657.35 1861.28 641.03C1863.34 635.86 1865.41 630.67 1867.48 625.5C2042.85 673.04 2218.54 719.8 2377.55 845C2348.16 754.37 2323.03 676.86 2297.91 599.35C2363.23 664.17 2406.21 739.9 2431.89 827.09C2440.33 855.76 2460.39 894.69 2484.05 902.75C2571.6 932.54 2663.14 939.12 2752.81 905.83C2789.55 892.2 2801.01 863.61 2778.04 831.98C2751 794.78 2722.27 756.36 2686.51 728.38C2546.55 618.85 2387.92 540.57 2220.87 484.16C1978.4 402.28 1725.3 401.43 1472.62 408.07C1314.7 412.22 1336.98 444.91 1248.95 286.9C1167.66 140.99 1028.95 90.4203 869.439 144.08C767.139 178.5 693.789 251.98 624.649 329.5C569.129 391.75 505.909 439.18 423.679 459.14C409.779 462.51 397.029 470.63 383.749 476.56C381.959 482.29 380.169 488.03 378.379 493.76C420.529 520.74 462.229 548.46 504.919 574.54C586.979 624.68 670.409 622.72 748.539 569.27C802.339 532.47 853.569 490.47 899.939 444.7C947.639 397.63 988.039 343.17 1031.63 291.95C1039.31 292.27 1046.98 292.58 1054.65 292.9C970.969 345.07 1044.17 392.37 1043.57 450.88C1019.94 428.69 1003.45 413.21 985.039 395.91C955.109 434.82 927.589 467.97 903.539 503.46C896.319 514.12 896.099 531.56 897.299 545.49C901.679 596.73 914.789 648.21 911.809 698.84C908.399 756.88 891.349 814.12 880.229 871.71C874.419 870.69 868.599 869.66 862.789 868.63C865.989 830.41 869.199 792.19 872.399 753.97C868.609 752.02 864.829 750.08 861.039 748.13C835.979 779.67 808.349 809.54 786.259 843.05C677.099 1008.66 615.819 1193.15 584.309 1387.04C574.569 1446.96 576.819 1511.61 587.809 1571.48C607.139 1676.69 666.929 1757.06 766.099 1811.36C753.179 1733.84 741.409 1663.19 729.639 1592.55C734.809 1591.19 739.979 1589.83 745.149 1588.46C770.599 1772.69 844.879 1930.26 994.109 2055.83C1010.5 1990.52 1023.88 1933.51 1039.13 1877.01C1099.19 1654.54 1193.17 1450.47 1381.58 1306.96L1381.55 1306.97Z" fill="#BEBFC0"/>
<path d="M832.6 1958.3C823.81 2097.13 861.7 2214.4 971.09 2308.6C975.7 2251.84 980.5 2200.64 983.53 2149.32C984.17 2138.49 981.64 2124.43 974.95 2116.74C929.1 2064.04 881.75 2012.64 832.6 1958.3Z" fill="#BEBFC0"/>
<path d="M2345.88 463.331C2294.93 319.981 2258.66 257.331 2199.6 209.781C2090 121.531 1971.28 156.281 1929.33 289.221C1922.65 310.381 1918.21 332.251 1911.73 357.751C1991.49 372.651 2064.91 383.201 2136.64 400.661C2206.83 417.751 2275.3 441.891 2345.87 463.331H2345.88Z" fill="#BEBFC0"/>
<path d="M3650.44 1880.76C3594.27 1781.39 3509.67 1713.6 3408.18 1665.8C3366.61 1712.47 3317.73 1731.64 3261.56 1723.29C3248.3 1750.35 3235.13 1777.22 3224.69 1798.53C3295.03 1840.21 3364.7 1881.5 3434.37 1922.79C3431.73 1927.24 3429.08 1931.7 3426.44 1936.15C3231.51 1836.28 3032.37 1801.36 2814.51 1825.31C2653.95 1842.95 2518.71 1902.06 2427.68 2042.9C2395.89 2092.09 2360.34 2138.94 2324.94 2185.68C2258.36 2273.57 2184.18 2351.51 2059.56 2367.06C2101.35 2421.36 2141.06 2470.39 2177.97 2521.45C2259.73 2634.56 2329.94 2752.83 2326.82 2899.3C2326.23 2927.22 2321.08 2955.04 2317.85 2984.58C2472.12 2930.57 2622.44 2880.02 2771.12 2825.04C2853.31 2794.65 2913.42 2735.35 2956.39 2659.1C2965.2 2643.47 2973.62 2627.61 2982.23 2611.86C2986.31 2613.46 2990.39 2615.06 2994.47 2616.67C2976.9 2667.42 2959.33 2718.17 2942.12 2767.84C3146.59 2681.21 3276.36 2459.9 3248.67 2239.28C3246.8 2224.45 3228.78 2204.23 3214.17 2199.71C3151.67 2180.34 3088.16 2163.22 3023.92 2150.99C2997.52 2145.96 2964.22 2147.54 2941.26 2159.7C2874.3 2195.14 2810.09 2236.07 2746.55 2277.53C2709.23 2301.89 2675.24 2331.34 2639.75 2358.5C2691.34 2260.92 2785.4 2208.56 2862.21 2136.42C2820.42 2141.62 2779.6 2148.06 2740.49 2160.07C2702.49 2171.73 2666.24 2189.09 2620.16 2207.59C2720.88 2104.03 2908.99 2058.58 3046.17 2093.62C3121.12 2112.77 3197.98 2133.55 3274.42 2135.45C3371.52 2137.87 3472.43 2134.78 3565.57 2110.52C3678.3 2081.17 3707.96 1982.54 3650.44 1880.77V1880.76Z" fill="#BEBFC0"/>
<path d="M3426.92 2269.33C3410.82 2206.75 3372.74 2199.07 3314.66 2217.02C3350.48 2421.14 3310.63 2598.78 3145.98 2736.98C3244.62 2712.96 3338.1 2681.34 3417.77 2618.09C3470.41 2576.31 3500.22 2522.34 3484.95 2455.56C3470.49 2392.37 3443.1 2332.23 3426.92 2269.33Z" fill="#BEBFC0"/>
<path d="M1919.28 2294.26C1725.07 2034.58 1647.74 1744.24 1682.44 1423.47C1692.49 1330.56 1744.36 1285.36 1838.51 1285.78C1874.07 1285.94 1911.51 1292.05 1944.71 1304.47C2012.44 1329.83 2079.76 1357.69 2143.8 1391.11C2239.87 1441.22 2328.53 1508.15 2428.35 1547.85C2590.14 1612.2 2571.56 1632.02 2631.96 1450.27C2648.25 1401.24 2657.92 1350.03 2670.64 1299.81C2676.84 1298.65 2683.04 1297.5 2689.24 1296.34C2724.93 1389.71 2760.61 1483.08 2800.46 1587.38C2827.3 1548.72 2853.06 1509.86 2880.8 1472.45C2893.27 1455.62 2909.16 1430.4 2924.46 1429.68C2939.61 1428.97 2959.05 1452.09 2971.19 1468.7C3001.29 1509.85 3027.3 1552.45 3091.13 1532.29C3107.32 1527.17 3129.75 1532.83 3146.43 1540.12C3175.01 1552.6 3196.07 1552.08 3219.83 1528.26C3245.02 1502.99 3252.88 1478.09 3240.91 1444.84C3185.87 1292.04 3078.7 1199.4 2918.91 1171.78C2869.12 1163.18 2833.51 1145.4 2807.65 1099.81C2793.01 1074.01 2763.18 1056.81 2740.19 1035.73C2795.36 1114.6 2836.45 1195.89 2859.09 1298.41C2840.5 1284.43 2830.46 1278.1 2821.85 1270.21C2751.2 1205.45 2671.26 1161.74 2573.28 1155.26C2549.47 1153.69 2523.91 1149.35 2503.18 1138.56C2480.75 1126.89 2444.95 1103.08 2447.18 1090.08C2451.29 1066.1 2474.82 1037.96 2497.74 1026.46C2531.3 1009.62 2571.47 1005.9 2608.1 996.759C2518.97 969.939 2446.87 996.959 2387.58 1082.64C2357.99 1125.41 2326.61 1161.74 2267.25 1151.79C2292.29 1117.33 2317.09 1083.19 2340.69 1050.69C2218.66 1018.16 2127.31 1103.43 2017.28 1130.89C2162.06 1183.67 2306.83 1236.45 2451.6 1289.23C2332.21 1289.23 2217.53 1269.75 2107.78 1225.24C1983.76 1174.95 1855.13 1143.27 1721.65 1133.05C1612.7 1124.71 1580.06 1143.97 1537.15 1243.32C1522.93 1276.26 1512.66 1311.59 1505.7 1346.83C1475.42 1499.95 1493.74 1652.89 1512.51 1805.34C1521.32 1876.85 1536.26 1947.6 1548.43 2018.69C1544.59 2019.54 1540.73 2020.4 1536.88 2021.25C1501 1878.62 1465.11 1735.99 1429.23 1593.35C1424.94 1591.59 1420.66 1589.83 1416.38 1588.07C1363.54 1706.1 1310.7 1824.12 1257.89 1942.09C1257.23 1936.56 1255.38 1929.92 1255.92 1923.47C1256.91 1911.48 1257.4 1898.94 1261.39 1887.81C1301.44 1776.3 1333.8 1660.93 1385.75 1555.19C1418.33 1488.9 1428.89 1427.26 1420.34 1357.97C1415.63 1354.75 1410.92 1351.53 1406.21 1348.31C1356.49 1406.7 1301.49 1461.42 1258.03 1524.14C1114.93 1730.6 1065.97 1968.08 1042.26 2212.56C1026.23 2377.8 1035.72 2543.12 1097.56 2696.85C1234.49 3037.27 1698.06 3249.12 2050.06 3135.1C2247.87 3071.03 2286.9 3006.04 2214.35 2796.68C2149.83 2610.5 2036.15 2450.55 1919.27 2294.27L1919.28 2294.26ZM3163.69 1427.49C3175.77 1427.49 3185.58 1437.28 3185.58 1449.36C3185.58 1461.44 3175.78 1471.23 3163.69 1471.23C3151.6 1471.23 3141.8 1461.43 3141.8 1449.36C3141.8 1437.29 3151.6 1427.49 3163.69 1427.49ZM3058.87 1264.06C3072.23 1264.06 3083.06 1274.89 3083.06 1288.23C3083.06 1301.57 3072.23 1312.39 3058.87 1312.39C3045.51 1312.39 3034.68 1301.57 3034.68 1288.23C3034.68 1274.89 3045.51 1264.06 3058.87 1264.06ZM3043.89 1398.72C3055.98 1398.72 3065.78 1408.51 3065.78 1420.58C3065.78 1432.65 3055.98 1442.45 3043.89 1442.45C3031.8 1442.45 3022.01 1432.66 3022.01 1420.58C3022.01 1408.5 3031.81 1398.72 3043.89 1398.72ZM2807.78 1317C2819.86 1317 2829.67 1326.8 2829.67 1338.87C2829.67 1350.94 2819.87 1360.74 2807.78 1360.74C2795.69 1360.74 2785.89 1350.94 2785.89 1338.87C2785.89 1326.8 2795.69 1317 2807.78 1317ZM2708.72 1236.44C2720.81 1236.44 2730.61 1246.23 2730.61 1258.3C2730.61 1270.37 2720.81 1280.17 2708.72 1280.17C2696.63 1280.17 2686.84 1270.38 2686.84 1258.3C2686.84 1246.22 2696.64 1236.44 2708.72 1236.44ZM2580.87 1382.61C2580.87 1394.68 2571.07 1404.47 2558.98 1404.47C2546.89 1404.47 2537.09 1394.68 2537.09 1382.61C2537.09 1370.54 2546.89 1360.74 2558.98 1360.74C2571.07 1360.74 2580.87 1370.53 2580.87 1382.61ZM2526.73 1224.92C2538.81 1224.92 2548.62 1234.72 2548.62 1246.79C2548.62 1258.86 2538.82 1268.66 2526.73 1268.66C2514.64 1268.66 2504.84 1258.86 2504.84 1246.79C2504.84 1234.72 2514.64 1224.92 2526.73 1224.92ZM2473.75 1475.83C2485.83 1475.83 2495.64 1485.63 2495.64 1497.7C2495.64 1509.77 2485.84 1519.57 2473.75 1519.57C2461.66 1519.57 2451.86 1509.78 2451.86 1497.7C2451.86 1485.62 2461.66 1475.83 2473.75 1475.83ZM2402.33 1369.94C2414.42 1369.94 2424.22 1379.74 2424.22 1391.81C2424.22 1403.88 2414.42 1413.68 2402.33 1413.68C2390.24 1413.68 2380.45 1403.88 2380.45 1391.81C2380.45 1379.74 2390.25 1369.94 2402.33 1369.94Z" fill="#BEBFC0"/>
<path d="M3163.69 1471.23C3175.77 1471.23 3185.58 1461.43 3185.58 1449.36C3185.58 1437.29 3175.78 1427.49 3163.69 1427.49C3151.6 1427.49 3141.8 1437.28 3141.8 1449.36C3141.8 1461.44 3151.6 1471.23 3163.69 1471.23Z" fill="black"/>
<path d="M2402.33 1413.68C2414.42 1413.68 2424.22 1403.88 2424.22 1391.81C2424.22 1379.74 2414.42 1369.94 2402.33 1369.94C2390.24 1369.94 2380.45 1379.74 2380.45 1391.81C2380.45 1403.88 2390.25 1413.68 2402.33 1413.68Z" fill="black"/>
<path d="M2473.75 1519.57C2485.84 1519.57 2495.64 1509.78 2495.64 1497.7C2495.64 1485.62 2485.84 1475.83 2473.75 1475.83C2461.66 1475.83 2451.86 1485.62 2451.86 1497.7C2451.86 1509.78 2461.66 1519.57 2473.75 1519.57Z" fill="black"/>
<path d="M3566.52 2201.28C3699.97 2146.65 3801.11 2025.56 3732.29 1880.88C3707.96 1829.72 3667.3 1782.42 3623.96 1745.12C3563.17 1692.81 3492.92 1651.48 3424.61 1603.99C3468.2 1479.15 3467.73 1353.74 3410.78 1218.28C3380.1 1355.99 3355.44 1403.21 3300.07 1437.56C3298.63 1436.69 3296.34 1436.14 3295.87 1434.9C3227.53 1253.14 3101.04 1142.7 2905.68 1115.78C2894.57 1114.26 2881.86 1108.64 2874.14 1100.75C2831.15 1056.78 2789.47 1011.54 2746.75 966.089C2747.09 965.949 2754.58 963.009 2761.95 959.759C2848.7 921.489 2865.97 861.089 2811.63 781.899C2798.07 762.139 2783.86 740.629 2764.82 727.189C2682.03 668.729 2601.41 605.069 2511.97 558.819C2446.38 524.919 2405.3 482.119 2385.07 414.169C2379.69 396.089 2373.4 377.359 2363.18 361.789C2321.05 297.569 2287.55 223.009 2232.03 173.229C2098.32 53.3294 1935 103.779 1878.73 273.449C1869.62 300.939 1863.18 329.309 1855.39 357.669C1724.1 357.669 1594.4 351.229 1465.73 359.949C1381.15 365.669 1334.23 343.459 1293.29 265.109C1190.13 67.6694 974.899 12.3194 787.219 133.759C710.139 183.639 643.229 251.409 578.829 317.949C529.149 369.289 476.999 407.499 406.999 425.899C379.559 433.119 341.319 459.169 337.879 481.299C334.209 504.869 360.019 541.459 383.069 559.359C500.679 650.659 625.929 699.949 766.329 623.909C729.279 666.459 691.679 708.579 656.789 752.829C654.639 755.559 652.479 757.949 650.309 760.169C584.729 742.979 518.249 726.549 453.829 710.659C434.589 705.919 415.339 701.169 396.119 696.399C391.229 695.189 386.279 694.599 381.389 694.599C363.719 694.599 346.629 702.249 334.849 716.049L321.619 731.549L319.679 733.819C301.509 755.099 300.099 785.979 316.269 808.809L457.639 1008.43C458.179 1009.19 458.799 1009.85 459.369 1010.57C457.839 1014 455.979 1017.57 453.759 1021.35C362.009 1177 298.469 1343.8 260.799 1520.81C260.209 1523.58 259.149 1526.39 257.799 1529.19C230.979 1535.26 204.599 1542.08 178.699 1548.8C159.809 1553.71 140.269 1558.78 121.279 1563.35C98.4587 1568.83 80.7887 1586.87 75.7987 1609.78L73.3187 1621.2L71.2087 1630.88C65.3887 1657.6 78.0387 1684.93 102.189 1697.8L230.879 1766.4C231.139 1770.1 231.179 1774.03 230.929 1778.3C218.029 2001.31 248.549 2218.35 321.149 2429.87C321.719 2431.54 322.069 2433.36 322.289 2435.25C316.599 2439.78 310.879 2444.34 305.229 2448.82L286.859 2463.42C272.939 2474.5 258.179 2485.01 242.549 2496.12C235.189 2501.37 227.819 2506.61 220.509 2511.93C195.619 2530.05 188.109 2563.84 202.949 2590.8L213.409 2609.8L217.119 2616.55C227.869 2636.08 248.409 2648.2 270.709 2648.2C289.589 2648.2 308.929 2648.39 327.639 2648.57C346.639 2648.75 366.289 2648.94 385.749 2648.94C396.749 2648.94 407.049 2648.87 416.899 2648.75C422.319 2655.55 427.269 2663.49 432.069 2672.55C519.519 2837.57 633.309 2983.43 781.539 3096.82C813.109 3120.98 839.509 3143.93 854.549 3169.74C847.129 3190.56 839.659 3211.71 832.489 3232.83C826.819 3249.53 825.129 3265.5 823.789 3278.34C823.319 3282.83 822.869 3287.07 822.319 3290.67C819.039 3312.22 827.489 3333.88 844.499 3347.51L850.589 3352.4L856.689 3357.3C867.799 3366.22 881.369 3370.76 894.999 3370.76C905.669 3370.76 916.379 3367.98 925.999 3362.33L1062.64 3282.05C1068.45 3282.71 1073.97 3283.97 1078.92 3286.08C1313.26 3386.12 1554.52 3412.45 1803.59 3358.93C1805.73 3358.47 1807.77 3358.11 1809.74 3357.8C1816.99 3370.25 1825.18 3380.11 1831.22 3387.38C1834.18 3390.93 1838.23 3395.81 1839.33 3397.71C1857.93 3431.22 1880.18 3461.07 1901.7 3489.94L1907.85 3498.2C1922.5 3517.91 1937.8 3536.55 1955.51 3558.13C1963.89 3568.36 1972.93 3579.36 1982.81 3591.6C1994.59 3606.2 2012.2 3614.35 2030.43 3614.35C2035.6 3614.35 2040.83 3613.69 2045.99 3612.34C2069.3 3606.21 2086.84 3586.97 2090.78 3563.22C2093.94 3544.15 2097.02 3527.1 2099.99 3510.62C2106.27 3475.78 2111.7 3445.68 2114.59 3414.37C2118.79 3368.75 2117.71 3324.55 2116.1 3287.33C2115.5 3273.44 2113.45 3260.54 2110.2 3248.58C2112.68 3246.57 2115.4 3244.56 2118.37 3242.51C2214.84 3176.42 2308.53 3106.32 2403.72 3038.36C2421.51 3025.66 2440.32 3012.33 2460.75 3005.79C2519.84 2986.88 2581.21 2974.7 2639.5 2953.79C2850.39 2878.15 3063.64 2812.85 3285.15 2774.33C3344.72 2763.97 3402.93 2735.1 3456.91 2705.79C3541.48 2659.89 3612.96 2533.33 3557.15 2404.95C3544.78 2376.48 3532 2348.17 3519.31 2319.83C3481.1 2234.51 3481.68 2235.98 3566.55 2201.24L3566.52 2201.28ZM3383.25 1407.53C3392.88 1395.97 3399.13 1381.61 3407.6 1367.42C3454.9 1446.28 3407.04 1631.85 3328.6 1664.58C3309.96 1672.36 3280.42 1653.41 3255.71 1647.5C3240.13 1643.78 3222.05 1635.72 3209.23 1640.55C3200.89 1643.7 3196.9 1666.45 3196.43 1680.6C3195.47 1710.47 3209.04 1742.97 3169.46 1760.81C3126.86 1780.01 3106.03 1750.26 3081.78 1726.01C3072.24 1716.48 3061.89 1707.77 3049.46 1696.47C3003.05 1771.54 2948.26 1729.65 2895.39 1710.74C2813.84 1781.13 2789.41 1784.5 2740.39 1730.45C2715.34 1750.54 2691.26 1772.48 2664.42 1790.27C2651.23 1799.01 2628.14 1808.8 2617.79 1803.11C2569.44 1776.52 2552.09 1811.24 2527.24 1839.82C2493.57 1878.54 2465.8 1936.13 2398.94 1895.1C2322.75 1988.43 2236.31 2024.03 2139.64 2001.92C2133.47 2015.15 2126.92 2028.84 2120.67 2042.67C2081.63 2129.12 2047.36 2144.89 1957.57 2117.64C1845.25 2083.54 1778.15 1959.22 1815.86 1854.7C1833 1807.18 1863.54 1779.73 1917.64 1787.82C1929.54 1789.6 1942.22 1787.63 1953.68 1790.65C2047.21 1815.3 2132.99 1815.87 2207.91 1737.92C2223.84 1721.35 2268.46 1726.01 2298.19 1730.94C2324.05 1735.23 2347.56 1753.73 2372.19 1765.99C2465.44 1624.41 2452.15 1660.19 2532.81 1720.25C2629.73 1643.18 2655.36 1532.23 2682.04 1421.84C2687.4 1422.08 2692.76 1422.32 2698.11 1422.55C2708.18 1469.7 2718.4 1516.8 2728.24 1563.99C2731.39 1579.15 2730.64 1595.82 2736.79 1609.51C2745.77 1629.47 2758.61 1662.36 2771.14 1662.98C2797.19 1664.27 2832.71 1655.8 2849.24 1637.62C2936.94 1541.15 2959.6 1541 3036.03 1648.86C3037.95 1651.57 3040.9 1653.54 3042.4 1654.95C3057.69 1632.67 3070.43 1606.92 3090.03 1588.42C3100.64 1578.41 3127.87 1572.42 3139.11 1579.04C3187.11 1607.28 3225.06 1585.83 3255.61 1555.26C3301.5 1509.34 3341.54 1457.52 3383.24 1407.52L3383.25 1407.53ZM1765.56 1853.94C1729.94 1745.38 1706.38 1645.36 1730.5 1546.01C1753.03 1453.24 1818.23 1442.57 1884.36 1510.12C1895.13 1521.12 1904.7 1533.31 1918.73 1549.44C1927.55 1532.22 1934.38 1517.44 1942.46 1503.37C1986.35 1426.93 2041.19 1414.74 2113.6 1466.18C2143 1487.07 2170.87 1510.07 2206.17 1537.3C2218.32 1483.07 2240.97 1486.83 2278.8 1512.74C2332.35 1549.39 2391.07 1578.51 2433.09 1602.56C2413.86 1628.14 2393.3 1659 2368.67 1686.16C2361.4 1694.19 2339.56 1698.12 2329.66 1693.25C2257.64 1657.78 2194.48 1673.38 2141.18 1727.13C2107.14 1761.46 2070.75 1762.6 2028.21 1754.84C1992.71 1748.37 1955.97 1748.51 1920.6 1741.58C1873.36 1732.34 1840.6 1749.32 1815.28 1788C1802.51 1807.52 1787.23 1825.39 1765.55 1853.93L1765.56 1853.94ZM1929.33 289.219C1971.28 156.279 2089.99 121.519 2199.6 209.779C2258.66 257.329 2294.93 319.979 2345.88 463.329C2275.31 441.879 2206.84 417.739 2136.65 400.659C2064.92 383.199 1991.5 372.649 1911.74 357.749C1918.22 332.249 1922.65 310.389 1929.34 289.219H1929.33ZM748.519 569.279C670.389 622.729 586.959 624.689 504.899 574.549C462.209 548.459 420.509 520.749 378.359 493.769C380.149 488.039 381.939 482.299 383.729 476.569C397.009 470.639 409.759 462.529 423.659 459.149C505.889 439.189 569.099 391.759 624.629 329.509C693.769 251.989 767.109 178.509 869.419 144.089C1028.93 90.4194 1167.65 140.999 1248.93 286.909C1336.96 444.919 1314.68 412.229 1472.6 408.079C1725.28 401.439 1978.38 402.289 2220.85 484.169C2387.9 540.579 2546.53 618.859 2686.49 728.389C2722.25 756.369 2750.99 794.789 2778.02 831.989C2800.99 863.619 2789.54 892.209 2752.79 905.839C2663.12 939.129 2571.59 932.549 2484.03 902.759C2460.37 894.709 2440.31 855.769 2431.87 827.099C2406.2 739.899 2363.21 664.169 2297.89 599.359C2323.01 676.869 2348.14 754.379 2377.53 845.009C2218.52 719.809 2042.84 673.059 1867.46 625.509C1865.39 630.679 1863.32 635.869 1861.26 641.039C1905.56 657.359 1951.67 670.029 1993.8 690.749C2092.51 739.269 2190.89 788.939 2286.15 843.789C2325.67 866.539 2370.34 905.759 2347.12 956.189C2322.48 1009.73 2260.85 997.509 2217.22 984.129C2118.56 953.879 2023.38 912.449 1925.88 878.159C1797.68 833.089 1669.83 786.229 1539.37 748.659C1471.66 729.159 1410.03 752.939 1371.12 819.129C1331.37 886.739 1327.64 964.479 1368.26 1022.95V947.659C1380.68 1021.49 1409.65 1085.77 1457.29 1142.3C1462.83 1148.86 1467.05 1163.07 1463.71 1169.52C1439.32 1216.75 1431.62 1268.82 1381.53 1306.98C1193.12 1450.49 1099.14 1654.56 1039.08 1877.03C1023.83 1933.53 1010.45 1990.54 994.059 2055.85C844.839 1930.29 770.559 1772.71 745.099 1588.48C739.929 1589.84 734.759 1591.2 729.589 1592.57C741.359 1663.21 753.129 1733.85 766.049 1811.38C666.879 1757.08 607.089 1676.71 587.759 1571.5C576.759 1511.63 574.519 1446.98 584.259 1387.06C615.759 1193.17 677.049 1008.68 786.209 843.069C808.299 809.559 835.929 779.689 860.989 748.149C864.779 750.099 868.559 752.039 872.349 753.989C869.149 792.209 865.939 830.429 862.739 868.649C868.549 869.68 874.369 870.709 880.179 871.729C891.309 814.139 908.349 756.899 911.759 698.859C914.739 648.229 901.629 596.749 897.249 545.509C896.059 531.579 896.279 514.139 903.489 503.479C927.539 467.989 955.059 434.839 984.989 395.929C1003.41 413.229 1019.89 428.709 1043.52 450.899C1044.11 392.389 970.919 345.089 1054.6 292.919C1046.93 292.599 1039.26 292.289 1031.58 291.969C987.989 343.189 947.589 397.649 899.889 444.719C853.519 490.489 802.289 532.489 748.489 569.289L748.519 569.279ZM2036.53 1082.58C1978.84 1085.81 1923.38 1093.51 1868.45 1090.79C1801.76 1087.49 1735.7 1072.08 1668.99 1068.2C1619.32 1065.31 1589.3 1037.56 1578.35 997.619C1567.22 957.029 1570.41 911.919 1572.41 869.039C1572.66 863.629 1605.8 852.289 1620.29 856.209C1734.66 887.199 1849.04 918.749 1961.27 956.489C1983.16 963.849 1997.1 998.019 2012.05 1021.52C2021.12 1035.79 2025.1 1053.31 2036.52 1082.57L2036.53 1082.58ZM1023.57 2690.5C1055.24 2723.77 1071.68 2771.5 1095.17 2812.54C763.069 2585.01 592.929 2128.3 637.329 1774.77C670.479 1791.92 688.519 1812.25 688.519 1853.07C688.539 2176.42 799.809 2455.38 1023.56 2690.5H1023.57ZM832.599 1958.3C881.749 2012.65 929.099 2064.04 974.949 2116.74C981.639 2124.43 984.169 2138.5 983.529 2149.32C980.509 2200.63 975.699 2251.84 971.089 2308.6C861.709 2214.4 823.809 2097.12 832.599 1958.3ZM751.169 742.889C791.649 706.819 809.289 733.719 790.939 788.739C768.259 817.509 747.169 847.009 727.559 877.129C728.909 862.279 728.309 847.609 725.449 833.579C722.349 818.409 713.849 801.749 701.199 788.139C731.929 758.069 751.179 742.899 751.179 742.899L751.169 742.889ZM366.189 773.499C371.249 767.569 376.309 761.649 381.359 755.719C403.329 761.169 425.289 766.589 447.259 771.999C513.169 788.259 579.059 804.559 644.699 821.869C649.349 823.099 654.419 827.249 658.449 832.259C661.919 836.569 664.639 841.499 665.509 845.789C666.809 852.179 667.319 858.859 667.099 865.709C666.969 869.889 666.479 874.129 665.839 878.389C660.629 912.739 639.359 949.379 610.839 973.709C602.109 981.159 592.689 987.449 582.869 992.169C580.559 973.339 574.579 957.619 566.289 943.859C543.089 905.419 501.689 882.429 471.079 850.269C469.029 848.109 467.029 845.919 465.079 843.669C462.119 840.259 459.299 836.739 456.649 833.079C453.989 829.419 451.489 825.619 449.189 821.659C444.769 824.819 440.359 827.989 435.939 831.159C464.949 875.059 493.939 918.959 522.949 962.869C517.819 966.279 512.679 969.709 507.549 973.119C460.429 906.579 413.299 840.029 366.179 773.499H366.189ZM130.959 1643.86C132.489 1636.83 134.029 1629.8 135.549 1622.77C152.419 1618.72 169.269 1614.39 186.089 1610.02C202.919 1605.66 219.739 1601.25 236.599 1597.05C255.579 1592.31 274.599 1587.9 293.699 1584.01C308.519 1580.99 323.389 1578.25 338.329 1576.1C340.589 1575.77 342.909 1575.26 345.259 1574.66C345.469 1574.6 345.679 1574.55 345.889 1574.5C348.169 1573.89 350.489 1573.19 352.829 1572.42C352.919 1572.39 352.989 1572.36 353.079 1572.34C355.499 1571.53 357.959 1570.65 360.439 1569.75C362.919 1568.85 365.419 1567.93 367.929 1567.01C368.119 1566.95 368.299 1566.88 368.479 1566.82C370.989 1565.91 373.509 1565.03 376.039 1564.2C376.209 1564.14 376.389 1564.09 376.559 1564.03C378.989 1563.24 381.429 1562.53 383.859 1561.9C384.039 1561.86 384.219 1561.81 384.399 1561.76C386.909 1561.13 389.429 1560.6 391.929 1560.24C392.059 1560.22 392.199 1560.2 392.339 1560.18C394.749 1559.84 397.149 1559.64 399.519 1559.63C399.629 1559.63 399.759 1559.61 399.879 1559.61C399.999 1559.61 400.129 1559.63 400.249 1559.63C401.659 1559.65 403.069 1559.71 404.469 1559.87C404.709 1559.89 404.959 1559.94 405.189 1559.98C406.419 1560.13 407.649 1560.35 408.859 1560.64C409.149 1560.7 409.439 1560.76 409.729 1560.83C411.089 1561.18 412.439 1561.62 413.779 1562.14C414.059 1562.25 414.349 1562.38 414.629 1562.5C415.809 1563 416.989 1563.58 418.149 1564.24C418.379 1564.37 418.609 1564.48 418.849 1564.61C420.149 1565.39 421.439 1566.28 422.709 1567.26C422.999 1567.49 423.289 1567.74 423.589 1567.97C424.759 1568.93 425.919 1569.97 427.059 1571.14C427.199 1571.28 427.339 1571.4 427.479 1571.55C428.709 1572.83 429.929 1574.27 431.119 1575.82C431.399 1576.19 431.689 1576.57 431.969 1576.95C433.169 1578.58 434.359 1580.29 435.519 1582.2C450.419 1606.72 453.539 1643.17 448.549 1675.96C447.449 1683.24 445.939 1690.35 444.069 1697.09C443.489 1699.21 442.869 1701.27 442.209 1703.31C437.639 1717.56 431.419 1729.87 423.949 1738.43C395.009 1710.73 361.309 1694.07 325.859 1681.53C311.359 1676.41 296.559 1671.98 281.689 1667.76C249.809 1658.73 217.529 1650.69 186.899 1639.02C217.539 1657.48 248.169 1675.95 278.799 1694.42C303.759 1709.46 328.709 1724.5 353.659 1739.55C350.329 1745.47 346.999 1751.38 343.669 1757.3C321.219 1745.33 298.779 1733.37 276.329 1721.4C227.859 1695.56 179.389 1669.73 130.929 1643.89L130.959 1643.86ZM438.589 2587.18C436.669 2587.23 434.749 2587.29 432.819 2587.33C429.499 2587.4 426.179 2587.48 422.859 2587.53C419.959 2587.57 417.059 2587.61 414.159 2587.64C409.179 2587.7 404.199 2587.75 399.219 2587.77C396.349 2587.79 393.469 2587.8 390.599 2587.8C388.979 2587.8 387.359 2587.82 385.729 2587.82C384.319 2587.82 382.899 2587.8 381.489 2587.79C363.869 2587.77 346.249 2587.62 328.629 2587.45C309.309 2587.26 289.999 2587.08 270.689 2587.08C265.959 2578.5 261.239 2569.92 256.519 2561.33C279.369 2544.69 302.849 2528.82 324.939 2511.23C344.049 2496.02 363.209 2480.82 382.259 2465.53C410.129 2443.16 437.769 2420.52 464.539 2396.91C465.979 2395.64 467.389 2394.49 468.759 2393.4C469.219 2393.04 469.669 2392.74 470.119 2392.39C471.029 2391.71 471.939 2391.04 472.839 2390.43C473.369 2390.07 473.879 2389.77 474.399 2389.43C475.199 2388.92 476.009 2388.42 476.789 2387.98C477.329 2387.68 477.859 2387.4 478.389 2387.14C479.139 2386.75 479.889 2386.38 480.629 2386.05C481.169 2385.81 481.689 2385.59 482.219 2385.39C482.949 2385.1 483.659 2384.85 484.389 2384.62C484.899 2384.45 485.409 2384.29 485.919 2384.15C486.639 2383.96 487.359 2383.8 488.079 2383.66C488.559 2383.57 489.049 2383.47 489.519 2383.4C490.269 2383.29 491.019 2383.25 491.769 2383.2C492.199 2383.18 492.629 2383.13 493.049 2383.13C493.149 2383.13 493.249 2383.11 493.349 2383.11C493.739 2383.11 494.119 2383.18 494.499 2383.2C495.319 2383.23 496.129 2383.27 496.939 2383.38C497.449 2383.45 497.969 2383.57 498.489 2383.67C499.239 2383.81 499.999 2383.97 500.749 2384.17C501.289 2384.32 501.819 2384.5 502.359 2384.68C503.089 2384.92 503.819 2385.18 504.549 2385.49C505.089 2385.71 505.629 2385.95 506.159 2386.2C506.889 2386.55 507.619 2386.91 508.339 2387.31C508.879 2387.6 509.429 2387.9 509.959 2388.23C510.699 2388.68 511.439 2389.15 512.179 2389.65C512.709 2390.01 513.239 2390.35 513.769 2390.73C514.549 2391.29 515.329 2391.9 516.119 2392.51C516.609 2392.9 517.109 2393.27 517.609 2393.68C518.489 2394.4 519.379 2395.18 520.259 2395.97C520.679 2396.34 521.099 2396.68 521.519 2397.07C522.839 2398.27 524.159 2399.53 525.509 2400.87C551.569 2426.72 568.109 2454.33 574.319 2481.56C580.539 2508.78 576.439 2535.61 561.249 2559.86C561.589 2557.99 561.859 2556.2 562.069 2554.46C562.139 2553.89 562.179 2553.36 562.239 2552.8C562.349 2551.65 562.459 2550.51 562.519 2549.42C562.549 2548.79 562.559 2548.19 562.579 2547.58C562.599 2546.61 562.609 2545.64 562.599 2544.72C562.579 2544.11 562.549 2543.53 562.519 2542.94C562.459 2542.05 562.379 2541.18 562.279 2540.34C562.219 2539.8 562.149 2539.25 562.069 2538.73C561.929 2537.88 561.749 2537.06 561.549 2536.26C561.439 2535.81 561.359 2535.35 561.229 2534.92C560.949 2533.95 560.609 2533.03 560.249 2532.14C560.169 2531.94 560.099 2531.7 560.009 2531.5C559.529 2530.43 558.989 2529.43 558.389 2528.49C558.199 2528.19 557.969 2527.93 557.769 2527.65C557.319 2527.02 556.859 2526.4 556.349 2525.84C556.069 2525.52 555.749 2525.23 555.439 2524.94C554.949 2524.45 554.439 2523.99 553.899 2523.56C553.549 2523.28 553.179 2523.02 552.809 2522.76C552.239 2522.37 551.649 2522.01 551.029 2521.67C550.629 2521.44 550.229 2521.22 549.799 2521.01C549.129 2520.69 548.409 2520.4 547.679 2520.13C547.249 2519.98 546.839 2519.8 546.399 2519.66C545.499 2519.38 544.549 2519.15 543.579 2518.94C543.259 2518.87 542.949 2518.77 542.609 2518.7C541.269 2518.46 539.869 2518.27 538.399 2518.16C538.029 2518.13 537.629 2518.14 537.259 2518.11C536.299 2518.06 535.349 2518 534.339 2518C534.179 2518 533.989 2518.02 533.819 2518.02C532.609 2518.02 531.319 2518.11 530.029 2518.2C529.389 2518.24 528.789 2518.25 528.129 2518.31C526.139 2518.49 524.079 2518.75 521.929 2519.1C521.929 2519.1 521.909 2519.1 521.899 2519.1C512.559 2520.62 503.179 2521.95 493.809 2523.31C484.439 2524.66 475.069 2526.03 465.739 2527.62C447.359 2530.77 428.999 2534 410.629 2537.23C382.179 2542.23 353.729 2547.26 325.279 2552.26C325.889 2556.47 326.499 2560.67 327.099 2564.88H557.159C527.889 2572.28 498.879 2584.63 469.329 2586.08C461.609 2586.45 453.889 2586.74 446.169 2586.99C443.639 2587.06 441.109 2587.12 438.579 2587.18H438.589ZM1041.8 3223.37C992.849 3252.13 943.919 3280.89 894.969 3309.64C890.909 3306.38 886.839 3303.12 882.779 3299.86C883.079 3297.88 883.349 3295.89 883.589 3293.89C884.079 3289.89 884.479 3285.86 884.909 3281.85C885.979 3271.8 887.219 3261.82 890.389 3252.49C896.209 3235.37 902.189 3218.3 908.239 3201.27C913.219 3187.24 918.249 3173.23 923.269 3159.21C926.589 3149.95 929.899 3140.68 933.199 3131.41C943.079 3103.6 952.789 3075.73 961.919 3047.66C962.759 3045.11 963.639 3042.76 964.549 3040.52C964.789 3039.91 965.049 3039.32 965.299 3038.74C966.089 3036.91 966.909 3035.17 967.769 3033.56C967.939 3033.24 968.099 3032.88 968.279 3032.56C969.299 3030.71 970.369 3029.04 971.479 3027.49C971.759 3027.1 972.059 3026.74 972.339 3026.38C973.269 3025.18 974.239 3024.07 975.229 3023.06C975.519 3022.76 975.809 3022.44 976.109 3022.15C977.369 3020.97 978.669 3019.92 980.049 3019.02C980.319 3018.84 980.599 3018.7 980.879 3018.53C982.049 3017.82 983.259 3017.21 984.519 3016.69C984.929 3016.52 985.329 3016.35 985.749 3016.2C987.299 3015.64 988.899 3015.18 990.579 3014.89C990.689 3014.87 990.799 3014.87 990.899 3014.86C992.509 3014.59 994.189 3014.48 995.939 3014.45C996.179 3014.45 996.389 3014.39 996.629 3014.39C996.979 3014.39 997.349 3014.45 997.699 3014.45C998.659 3014.47 999.629 3014.53 1000.62 3014.62C1001.3 3014.68 1001.98 3014.74 1002.68 3014.83C1003.73 3014.96 1004.81 3015.15 1005.91 3015.35C1006.6 3015.47 1007.28 3015.59 1007.99 3015.73C1009.22 3016 1010.5 3016.33 1011.79 3016.67C1012.41 3016.83 1013.01 3016.97 1013.65 3017.15C1015.6 3017.71 1017.6 3018.34 1019.68 3019.06C1067.95 3035.89 1110.55 3057.87 1129.35 3105.49C1070.96 3121.59 1031.11 3160.19 991.489 3198.24C967.059 3221.69 942.709 3244.94 914.159 3262.58C916.449 3266.17 918.749 3269.77 921.039 3273.37C954.119 3253.26 987.199 3233.14 1020.28 3213.03C1046.67 3196.97 1073.06 3180.93 1099.46 3164.88C1102.99 3171.02 1106.52 3177.16 1110.05 3183.3C1087.3 3196.67 1064.55 3210.04 1041.8 3223.4V3223.37ZM1849.53 3211.9C1828.75 3215.45 1811.21 3229.48 1803.21 3249.08C1790.98 3279.06 1790.97 3304.6 1796.37 3325.78C1719.67 3336.74 1627.93 3343.86 1518.89 3343.86C1366.66 3332.68 1231.35 3300.96 1111.32 3253.44L1141.06 3235.97C1169.1 3219.49 1179.2 3184.11 1164.54 3155.48C1172.75 3149.71 1179.51 3141.95 1184.09 3132.77C1191.84 3117.25 1192.63 3099.17 1186.26 3083.05C1157.59 3010.43 1092.95 2979.85 1039.83 2961.33C1024.22 2955.89 1010.09 2953.25 996.639 2953.25C971.119 2953.25 925.109 2963.06 903.739 3028.77C893.379 3060.63 881.979 3092.92 870.669 3124.61C689.129 2998.34 556.179 2829.64 462.279 2647.59C465.659 2647.44 469.009 2647.3 472.319 2647.14C500.289 2645.78 525.509 2638.04 547.749 2631.22C556.369 2628.58 564.519 2626.09 572.169 2624.15C586.479 2620.53 598.429 2612.08 606.579 2600.91C608.979 2598.27 611.169 2595.39 613.119 2592.28C658.549 2519.74 641.499 2429.77 568.629 2357.48C559.779 2348.7 532.839 2321.99 493.359 2321.99C469.279 2321.99 445.979 2331.79 424.079 2351.09C403.669 2369.08 382.379 2386.79 360.899 2404.23C297.529 2210.85 270.959 2016.85 270.959 1853.95C270.959 1831.8 271.429 1809.99 272.289 1788.49L314.889 1811.2C324.049 1816.08 333.909 1818.4 343.639 1818.4C363.349 1818.4 382.509 1808.86 394.179 1791.79C403.219 1796.83 413.459 1799.53 423.959 1799.53C424.879 1799.53 425.799 1799.51 426.729 1799.47C443.439 1798.72 459.119 1791.15 470.109 1778.55C512.709 1729.66 529.739 1619.38 487.839 1550.44C467.469 1516.93 436.239 1498.46 399.909 1498.46C377.219 1498.46 357.309 1505.79 342.769 1511.13C338.379 1512.74 331.749 1515.18 329.389 1515.63C321.629 1516.75 313.919 1518.03 306.219 1519.38C349.379 1319.38 426.429 1157.34 504.469 1034.06C505.519 1034.12 506.569 1034.25 507.619 1034.25C516.439 1034.25 525.319 1032.34 533.639 1028.43C538.849 1035.5 545.599 1041.47 553.539 1045.81C562.669 1050.8 572.769 1053.3 582.889 1053.3C591.929 1053.3 600.989 1051.31 609.369 1047.27C622.159 1041.13 634.259 1033.39 645.519 1024.44C451.459 1436.36 491.779 1929.04 630.369 2308.6C1010.04 3137.05 1571.11 3219.57 1854.13 3205.45C1852.48 3207.5 1850.9 3209.63 1849.52 3211.9H1849.53ZM2053.63 3408.78C2049.71 3451.3 2040.32 3493.32 2030.38 3553.24C1999.88 3515.45 1977.41 3489.34 1956.93 3461.77C1934.34 3431.38 1911.08 3401.02 1892.79 3368.05C1891.87 3366.41 1890.88 3364.79 1889.8 3363.18C1887.65 3359.97 1885.21 3356.81 1882.64 3353.64C1877.49 3347.29 1871.82 3340.89 1866.92 3333.91C1865.7 3332.17 1864.51 3330.39 1863.4 3328.57C1861.17 3324.92 1859.22 3321.09 1857.69 3317.03C1857.53 3316.61 1857.44 3316.16 1857.29 3315.74C1855.99 3312.04 1855.01 3308.18 1854.55 3304.04C1854.3 3301.73 1854.19 3299.34 1854.26 3296.88C1854.32 3294.41 1854.54 3291.85 1854.96 3289.2C1855.38 3286.56 1855.98 3283.82 1856.79 3280.98C1857.6 3278.13 1858.61 3275.19 1859.86 3272.14C1861.98 3274.9 1864.04 3277.59 1866.14 3280.32C1873.71 3290.17 1881.17 3299.9 1888.51 3309.47C1892.45 3314.61 1896.43 3319.79 1900.32 3324.85C1920.02 3350.52 1939.02 3375.28 1957.66 3399.57C1976.3 3423.86 1994.59 3447.69 2012.87 3471.52C2016.11 3469.51 2019.33 3467.49 2022.57 3465.48C2017.68 3456.5 2012.79 3447.53 2007.89 3438.55C1998.1 3420.58 1988.28 3402.56 1978.38 3384.39C1963.18 3356.49 1947.78 3328.23 1932 3299.27C1922.07 3281.07 1912.01 3262.59 1901.74 3243.73C1910.13 3240.96 1918.84 3237.43 1927.81 3233.95C1942.76 3228.15 1958.43 3222.48 1974.54 3220.59C1977.56 3220.24 1980.48 3220.01 1983.33 3219.85C1984.25 3219.8 1985.12 3219.79 1986.02 3219.76C1987.36 3219.72 1988.73 3219.64 1990.03 3219.64C1990.56 3219.64 1991.04 3219.69 1991.57 3219.7C1992.71 3219.72 1993.82 3219.76 1994.94 3219.82C1996.51 3219.89 1998.07 3219.99 1999.58 3220.14C2000.66 3220.25 2001.72 3220.37 2002.77 3220.51C2004.24 3220.7 2005.67 3220.95 2007.08 3221.22C2008.06 3221.41 2009.05 3221.6 2010 3221.82C2011.4 3222.15 2012.74 3222.54 2014.07 3222.95C2014.95 3223.21 2015.83 3223.46 2016.67 3223.76C2018.04 3224.25 2019.35 3224.81 2020.64 3225.37C2021.35 3225.69 2022.09 3225.97 2022.78 3226.3C2024.33 3227.07 2025.8 3227.92 2027.23 3228.82C2027.59 3229.05 2027.98 3229.23 2028.34 3229.47C2030.11 3230.64 2031.79 3231.91 2033.38 3233.28C2033.78 3233.63 2034.13 3234.03 2034.52 3234.39C2035.67 3235.45 2036.8 3236.54 2037.85 3237.71C2038.36 3238.29 2038.82 3238.92 2039.32 3239.52C2040.17 3240.57 2041.02 3241.64 2041.81 3242.78C2042.3 3243.49 2042.76 3244.25 2043.22 3245C2043.93 3246.12 2044.61 3247.26 2045.25 3248.46C2045.69 3249.29 2046.1 3250.14 2046.51 3251.01C2047.09 3252.23 2047.65 3253.49 2048.17 3254.79C2048.54 3255.71 2048.9 3256.65 2049.24 3257.6C2049.56 3258.48 2049.86 3259.36 2050.16 3260.28C2050.31 3260.77 2050.44 3261.29 2050.59 3261.79C2050.88 3262.79 2051.17 3263.77 2051.44 3264.8C2051.83 3266.32 2052.17 3267.91 2052.49 3269.5C2052.7 3270.52 2052.93 3271.53 2053.11 3272.58C2053.43 3274.38 2053.67 3276.25 2053.9 3278.14C2054.02 3279.09 2054.18 3280 2054.27 3280.97C2054.57 3283.79 2054.79 3286.7 2054.92 3289.73C2054.92 3289.8 2054.94 3289.88 2054.94 3289.95C2055.37 3299.84 2055.73 3309.75 2055.97 3319.67C2056.21 3329.59 2056.34 3339.51 2056.29 3349.44C2056.2 3369.28 2055.45 3389.09 2053.64 3408.76L2053.63 3408.78ZM2105.22 3233.38C2096.19 3210.44 2081.82 3192.17 2063.09 3179.4C2133.57 3176.68 2140.9 3209.38 2140.9 3209.38C2140.9 3209.38 2130.16 3219.14 2105.22 3233.38ZM2050.07 3135.1C1698.07 3249.12 1234.5 3037.27 1097.57 2696.85C1035.73 2543.12 1026.23 2377.8 1042.27 2212.56C1065.98 1968.08 1114.94 1730.6 1258.04 1524.14C1301.5 1461.42 1356.51 1406.7 1406.22 1348.31C1410.92 1351.53 1415.63 1354.75 1420.35 1357.97C1428.9 1427.26 1418.34 1488.9 1385.76 1555.19C1333.81 1660.92 1301.45 1776.3 1261.4 1887.81C1257.4 1898.94 1256.92 1911.49 1255.93 1923.47C1255.39 1929.92 1257.24 1936.56 1257.9 1942.09C1310.71 1824.12 1363.55 1706.09 1416.39 1588.07C1420.67 1589.83 1424.95 1591.59 1429.24 1593.35C1465.12 1735.99 1501.01 1878.62 1536.89 2021.25C1540.74 2020.4 1544.59 2019.54 1548.44 2018.69C1536.28 1947.6 1521.33 1876.85 1512.52 1805.34C1493.75 1652.89 1475.43 1499.95 1505.71 1346.83C1512.68 1311.59 1522.95 1276.26 1537.16 1243.32C1580.07 1143.98 1612.7 1124.71 1721.66 1133.05C1855.13 1143.28 1983.77 1174.95 2107.79 1225.24C2217.54 1269.75 2332.22 1289.23 2451.61 1289.23C2306.84 1236.46 2162.07 1183.67 2017.29 1130.89C2127.32 1103.43 2218.68 1018.16 2340.7 1050.69C2317.09 1083.19 2292.3 1117.33 2267.26 1151.79C2326.62 1161.75 2358 1125.41 2387.59 1082.64C2446.88 996.959 2518.98 969.929 2608.11 996.759C2571.47 1005.89 2531.31 1009.61 2497.75 1026.46C2474.83 1037.97 2451.3 1066.11 2447.19 1090.08C2444.96 1103.08 2480.76 1126.89 2503.19 1138.56C2523.92 1149.34 2549.48 1153.68 2573.29 1155.26C2671.28 1161.74 2751.21 1205.45 2821.86 1270.21C2830.47 1278.1 2840.51 1284.43 2859.1 1298.41C2836.46 1195.9 2795.37 1114.6 2740.2 1035.73C2763.19 1056.81 2793.02 1074 2807.66 1099.81C2833.53 1145.4 2869.13 1163.17 2918.92 1171.78C3078.71 1199.41 3185.88 1292.05 3240.92 1444.84C3252.9 1478.09 3245.04 1502.99 3219.84 1528.26C3196.08 1552.08 3175.02 1552.6 3146.44 1540.12C3129.75 1532.84 3107.33 1527.18 3091.14 1532.29C3027.31 1552.45 3001.3 1509.84 2971.2 1468.7C2959.05 1452.09 2939.62 1428.97 2924.47 1429.68C2909.17 1430.4 2893.28 1455.62 2880.81 1472.45C2853.07 1509.86 2827.31 1548.72 2800.47 1587.38C2760.61 1483.07 2724.93 1389.71 2689.25 1296.34C2683.05 1297.5 2676.85 1298.65 2670.65 1299.81C2657.94 1350.02 2648.26 1401.24 2631.97 1450.27C2571.57 1632.03 2590.15 1612.21 2428.36 1547.85C2328.55 1508.15 2239.88 1441.22 2143.81 1391.11C2079.77 1357.69 2012.44 1329.83 1944.72 1304.47C1911.52 1292.05 1874.08 1285.94 1838.52 1285.78C1744.37 1285.36 1692.5 1330.57 1682.45 1423.47C1647.75 1744.24 1725.08 2034.58 1919.29 2294.26C2036.17 2450.54 2149.85 2610.5 2214.37 2796.67C2286.92 3006.03 2247.89 3071.02 2050.08 3135.09L2050.07 3135.1ZM3417.77 2618.09C3338.1 2681.33 3244.62 2712.96 3145.98 2736.98C3310.63 2598.78 3350.47 2421.14 3314.66 2217.02C3372.74 2199.07 3410.83 2206.75 3426.92 2269.33C3443.1 2332.23 3470.49 2392.38 3484.95 2455.56C3500.23 2522.34 3470.41 2576.31 3417.77 2618.09ZM3274.43 2135.45C3197.99 2133.55 3121.13 2112.77 3046.18 2093.62C2909 2058.58 2720.89 2104.03 2620.17 2207.59C2666.25 2189.09 2702.5 2171.73 2740.5 2160.07C2779.61 2148.07 2820.42 2141.62 2862.22 2136.42C2785.4 2208.56 2691.35 2260.92 2639.76 2358.5C2675.25 2331.34 2709.24 2301.89 2746.56 2277.53C2810.1 2236.07 2874.31 2195.13 2941.27 2159.7C2964.23 2147.54 2997.54 2145.96 3023.93 2150.99C3088.17 2163.22 3151.68 2180.34 3214.18 2199.71C3228.78 2204.23 3246.81 2224.45 3248.68 2239.28C3276.37 2459.89 3146.6 2681.21 2942.13 2767.84C2959.34 2718.17 2976.91 2667.42 2994.48 2616.67C2990.4 2615.06 2986.32 2613.46 2982.24 2611.86C2973.64 2627.62 2965.21 2643.47 2956.4 2659.1C2913.43 2735.36 2853.33 2794.65 2771.13 2825.04C2622.45 2880.02 2472.13 2930.56 2317.86 2984.58C2321.09 2955.04 2326.24 2927.22 2326.83 2899.3C2329.95 2752.83 2259.74 2634.56 2177.98 2521.45C2141.08 2470.4 2101.37 2421.36 2059.57 2367.06C2184.19 2351.51 2258.36 2273.57 2324.95 2185.68C2360.35 2138.94 2395.9 2092.09 2427.69 2042.9C2518.72 1902.06 2653.96 1842.95 2814.52 1825.31C3032.38 1801.36 3231.51 1836.28 3426.45 1936.15C3429.09 1931.7 3431.74 1927.24 3434.38 1922.79C3364.71 1881.5 3295.03 1840.21 3224.7 1798.53C3235.14 1777.22 3248.31 1750.35 3261.57 1723.29C3317.7 1731.66 3366.57 1712.49 3408.19 1665.8C3509.67 1713.6 3594.28 1781.39 3650.45 1880.76C3707.98 1982.54 3678.31 2081.16 3565.58 2110.51C3472.45 2134.76 3371.53 2137.85 3274.43 2135.44V2135.45Z" fill="black"/>
<path d="M2526.73 1268.66C2538.82 1268.66 2548.62 1258.87 2548.62 1246.79C2548.62 1234.71 2538.82 1224.92 2526.73 1224.92C2514.64 1224.92 2504.84 1234.71 2504.84 1246.79C2504.84 1258.87 2514.64 1268.66 2526.73 1268.66Z" fill="black"/>
<path d="M3058.87 1312.39C3072.23 1312.39 3083.06 1301.57 3083.06 1288.23C3083.06 1274.89 3072.23 1264.06 3058.87 1264.06C3045.51 1264.06 3034.68 1274.89 3034.68 1288.23C3034.68 1301.57 3045.51 1312.39 3058.87 1312.39Z" fill="black"/>
<path d="M3043.89 1442.45C3055.98 1442.45 3065.78 1432.66 3065.78 1420.58C3065.78 1408.5 3055.98 1398.72 3043.89 1398.72C3031.8 1398.72 3022.01 1408.51 3022.01 1420.58C3022.01 1432.65 3031.81 1442.45 3043.89 1442.45Z" fill="black"/>
<path d="M2807.78 1360.74C2819.86 1360.74 2829.67 1350.94 2829.67 1338.87C2829.67 1326.8 2819.87 1317 2807.78 1317C2795.69 1317 2785.89 1326.8 2785.89 1338.87C2785.89 1350.94 2795.69 1360.74 2807.78 1360.74Z" fill="black"/>
<path d="M2708.72 1280.17C2720.81 1280.17 2730.61 1270.38 2730.61 1258.3C2730.61 1246.22 2720.81 1236.44 2708.72 1236.44C2696.63 1236.44 2686.84 1246.23 2686.84 1258.3C2686.84 1270.37 2696.64 1280.17 2708.72 1280.17Z" fill="black"/>
<path d="M2537.1 1382.61C2537.1 1394.68 2546.9 1404.47 2558.99 1404.47C2571.08 1404.47 2580.88 1394.68 2580.88 1382.61C2580.88 1370.54 2571.08 1360.74 2558.99 1360.74C2546.9 1360.74 2537.1 1370.53 2537.1 1382.61Z" fill="black"/>
</g>
</g>
<defs>
<clipPath id="clip0_81_39">
<rect width="3824.27" height="3684.1" fill="white"/>
</clipPath>
</defs>
</svg>
