<svg width="256" height="149" viewBox="0 0 256 149" fill="none" xmlns="http://www.w3.org/2000/svg">
<path d="M82.4295 146.818L82.3898 147.857H83.4288H121.537H122.543L122.537 146.851L121.735 2.44016L121.729 1.44572H120.735H54.5466H53.8418L53.6048 2.10955L2.0582 146.52L1.58126 147.857H3H41.309H42.0444L42.2636 147.154L51.8724 116.367H83.5933L82.4295 146.818ZM173.57 2.0382L173.61 1.00001L172.571 1.00001L134.463 1.00001L133.457 1.00001L133.463 2.00557L134.265 146.416L134.271 147.411H135.265H201.453H202.158L202.395 146.747L253.942 2.33617L254.419 1L253 1L214.691 1L213.956 1L213.736 1.70207L204.128 32.4896L172.407 32.4896L173.57 2.0382ZM86.7971 38.5456L84.6774 87.4905H60.7186L75.9416 38.5456H86.7971ZM169.203 110.311L171.323 61.366H195.281L180.058 110.311H169.203Z" fill="black" stroke="black" stroke-width="2"/>
</svg>
